<?xml version="1.0" encoding="utf-8" standalone="no"?>
<!DOCTYPE svg PUBLIC "-//W3C//DTD SVG 1.1//EN"
  "http://www.w3.org/Graphics/SVG/1.1/DTD/svg11.dtd">
<svg xmlns:xlink="http://www.w3.org/1999/xlink" width="1141.8328pt" height="333.341885pt" viewBox="0 0 1141.8328 333.341885" xmlns="http://www.w3.org/2000/svg" version="1.1">
 <metadata>
  <rdf:RDF xmlns:dc="http://purl.org/dc/elements/1.1/" xmlns:cc="http://creativecommons.org/ns#" xmlns:rdf="http://www.w3.org/1999/02/22-rdf-syntax-ns#">
   <cc:Work>
    <dc:type rdf:resource="http://purl.org/dc/dcmitype/StillImage"/>
    <dc:date>2023-06-01T14:18:48.303655</dc:date>
    <dc:format>image/svg+xml</dc:format>
    <dc:creator>
     <cc:Agent>
      <dc:title>Matplotlib v3.5.2, https://matplotlib.org/</dc:title>
     </cc:Agent>
    </dc:creator>
   </cc:Work>
  </rdf:RDF>
 </metadata>
 <defs>
  <style type="text/css">*{stroke-linejoin: round; stroke-linecap: butt}</style>
 </defs>
 <g id="figure_1">
  <g id="patch_1">
   <path d="M 0 333.341885 
L 1141.8328 333.341885 
L 1141.8328 0 
L 0 0 
z
" style="fill: #ffffff"/>
  </g>
  <g id="axes_1">
   <g id="patch_2">
    <path d="M 18.6328 296.2356 
L 261.241496 296.2356 
L 261.241496 19.0356 
L 18.6328 19.0356 
z
" style="fill: #ffffff"/>
   </g>
   <g id="matplotlib.axis_1">
    <g id="xtick_1">
     <g id="text_1">
      <!-- 0 -->
      <g style="fill: #262626" transform="translate(31.131193 307.926762)rotate(-90)scale(0.053299 -0.053299)">
       <defs>
        <path id="DejaVuSans-30" d="M 2034 4250 
Q 1547 4250 1301 3770 
Q 1056 3291 1056 2328 
Q 1056 1369 1301 889 
Q 1547 409 2034 409 
Q 2525 409 2770 889 
Q 3016 1369 3016 2328 
Q 3016 3291 2770 3770 
Q 2525 4250 2034 4250 
z
M 2034 4750 
Q 2819 4750 3233 4129 
Q 3647 3509 3647 2328 
Q 3647 1150 3233 529 
Q 2819 -91 2034 -91 
Q 1250 -91 836 529 
Q 422 1150 422 2328 
Q 422 3509 836 4129 
Q 1250 4750 2034 4750 
z
" transform="scale(0.015625)"/>
       </defs>
       <use xlink:href="#DejaVuSans-30"/>
      </g>
     </g>
    </g>
    <g id="xtick_2">
     <g id="text_2">
      <!-- 50 -->
      <g style="fill: #262626" transform="translate(80.14305 311.317923)rotate(-90)scale(0.053299 -0.053299)">
       <defs>
        <path id="DejaVuSans-35" d="M 691 4666 
L 3169 4666 
L 3169 4134 
L 1269 4134 
L 1269 2991 
Q 1406 3038 1543 3061 
Q 1681 3084 1819 3084 
Q 2600 3084 3056 2656 
Q 3513 2228 3513 1497 
Q 3513 744 3044 326 
Q 2575 -91 1722 -91 
Q 1428 -91 1123 -41 
Q 819 9 494 109 
L 494 744 
Q 775 591 1075 516 
Q 1375 441 1709 441 
Q 2250 441 2565 725 
Q 2881 1009 2881 1497 
Q 2881 1984 2565 2268 
Q 2250 2553 1709 2553 
Q 1456 2553 1204 2497 
Q 953 2441 691 2322 
L 691 4666 
z
" transform="scale(0.015625)"/>
       </defs>
       <use xlink:href="#DejaVuSans-35"/>
       <use xlink:href="#DejaVuSans-30" x="63.623047"/>
      </g>
     </g>
    </g>
    <g id="xtick_3">
     <g id="text_3">
      <!-- 100 -->
      <g style="fill: #262626" transform="translate(129.154908 314.709085)rotate(-90)scale(0.053299 -0.053299)">
       <defs>
        <path id="DejaVuSans-31" d="M 794 531 
L 1825 531 
L 1825 4091 
L 703 3866 
L 703 4441 
L 1819 4666 
L 2450 4666 
L 2450 531 
L 3481 531 
L 3481 0 
L 794 0 
L 794 531 
z
" transform="scale(0.015625)"/>
       </defs>
       <use xlink:href="#DejaVuSans-31"/>
       <use xlink:href="#DejaVuSans-30" x="63.623047"/>
       <use xlink:href="#DejaVuSans-30" x="127.246094"/>
      </g>
     </g>
    </g>
    <g id="xtick_4">
     <g id="text_4">
      <!-- 150 -->
      <g style="fill: #262626" transform="translate(178.166766 314.709085)rotate(-90)scale(0.053299 -0.053299)">
       <use xlink:href="#DejaVuSans-31"/>
       <use xlink:href="#DejaVuSans-35" x="63.623047"/>
       <use xlink:href="#DejaVuSans-30" x="127.246094"/>
      </g>
     </g>
    </g>
    <g id="xtick_5">
     <g id="text_5">
      <!-- 200 -->
      <g style="fill: #262626" transform="translate(227.178624 314.709085)rotate(-90)scale(0.053299 -0.053299)">
       <defs>
        <path id="DejaVuSans-32" d="M 1228 531 
L 3431 531 
L 3431 0 
L 469 0 
L 469 531 
Q 828 903 1448 1529 
Q 2069 2156 2228 2338 
Q 2531 2678 2651 2914 
Q 2772 3150 2772 3378 
Q 2772 3750 2511 3984 
Q 2250 4219 1831 4219 
Q 1534 4219 1204 4116 
Q 875 4013 500 3803 
L 500 4441 
Q 881 4594 1212 4672 
Q 1544 4750 1819 4750 
Q 2544 4750 2975 4387 
Q 3406 4025 3406 3419 
Q 3406 3131 3298 2873 
Q 3191 2616 2906 2266 
Q 2828 2175 2409 1742 
Q 1991 1309 1228 531 
z
" transform="scale(0.015625)"/>
       </defs>
       <use xlink:href="#DejaVuSans-32"/>
       <use xlink:href="#DejaVuSans-30" x="63.623047"/>
       <use xlink:href="#DejaVuSans-30" x="127.246094"/>
      </g>
     </g>
    </g>
    <g id="text_6">
     <!-- number of components in model -->
     <g style="fill: #262626" transform="translate(77.184948 324.544685)scale(0.0768 -0.0768)">
      <defs>
       <path id="DejaVuSans-6e" d="M 3513 2113 
L 3513 0 
L 2938 0 
L 2938 2094 
Q 2938 2591 2744 2837 
Q 2550 3084 2163 3084 
Q 1697 3084 1428 2787 
Q 1159 2491 1159 1978 
L 1159 0 
L 581 0 
L 581 3500 
L 1159 3500 
L 1159 2956 
Q 1366 3272 1645 3428 
Q 1925 3584 2291 3584 
Q 2894 3584 3203 3211 
Q 3513 2838 3513 2113 
z
" transform="scale(0.015625)"/>
       <path id="DejaVuSans-75" d="M 544 1381 
L 544 3500 
L 1119 3500 
L 1119 1403 
Q 1119 906 1312 657 
Q 1506 409 1894 409 
Q 2359 409 2629 706 
Q 2900 1003 2900 1516 
L 2900 3500 
L 3475 3500 
L 3475 0 
L 2900 0 
L 2900 538 
Q 2691 219 2414 64 
Q 2138 -91 1772 -91 
Q 1169 -91 856 284 
Q 544 659 544 1381 
z
M 1991 3584 
L 1991 3584 
z
" transform="scale(0.015625)"/>
       <path id="DejaVuSans-6d" d="M 3328 2828 
Q 3544 3216 3844 3400 
Q 4144 3584 4550 3584 
Q 5097 3584 5394 3201 
Q 5691 2819 5691 2113 
L 5691 0 
L 5113 0 
L 5113 2094 
Q 5113 2597 4934 2840 
Q 4756 3084 4391 3084 
Q 3944 3084 3684 2787 
Q 3425 2491 3425 1978 
L 3425 0 
L 2847 0 
L 2847 2094 
Q 2847 2600 2669 2842 
Q 2491 3084 2119 3084 
Q 1678 3084 1418 2786 
Q 1159 2488 1159 1978 
L 1159 0 
L 581 0 
L 581 3500 
L 1159 3500 
L 1159 2956 
Q 1356 3278 1631 3431 
Q 1906 3584 2284 3584 
Q 2666 3584 2933 3390 
Q 3200 3197 3328 2828 
z
" transform="scale(0.015625)"/>
       <path id="DejaVuSans-62" d="M 3116 1747 
Q 3116 2381 2855 2742 
Q 2594 3103 2138 3103 
Q 1681 3103 1420 2742 
Q 1159 2381 1159 1747 
Q 1159 1113 1420 752 
Q 1681 391 2138 391 
Q 2594 391 2855 752 
Q 3116 1113 3116 1747 
z
M 1159 2969 
Q 1341 3281 1617 3432 
Q 1894 3584 2278 3584 
Q 2916 3584 3314 3078 
Q 3713 2572 3713 1747 
Q 3713 922 3314 415 
Q 2916 -91 2278 -91 
Q 1894 -91 1617 61 
Q 1341 213 1159 525 
L 1159 0 
L 581 0 
L 581 4863 
L 1159 4863 
L 1159 2969 
z
" transform="scale(0.015625)"/>
       <path id="DejaVuSans-65" d="M 3597 1894 
L 3597 1613 
L 953 1613 
Q 991 1019 1311 708 
Q 1631 397 2203 397 
Q 2534 397 2845 478 
Q 3156 559 3463 722 
L 3463 178 
Q 3153 47 2828 -22 
Q 2503 -91 2169 -91 
Q 1331 -91 842 396 
Q 353 884 353 1716 
Q 353 2575 817 3079 
Q 1281 3584 2069 3584 
Q 2775 3584 3186 3129 
Q 3597 2675 3597 1894 
z
M 3022 2063 
Q 3016 2534 2758 2815 
Q 2500 3097 2075 3097 
Q 1594 3097 1305 2825 
Q 1016 2553 972 2059 
L 3022 2063 
z
" transform="scale(0.015625)"/>
       <path id="DejaVuSans-72" d="M 2631 2963 
Q 2534 3019 2420 3045 
Q 2306 3072 2169 3072 
Q 1681 3072 1420 2755 
Q 1159 2438 1159 1844 
L 1159 0 
L 581 0 
L 581 3500 
L 1159 3500 
L 1159 2956 
Q 1341 3275 1631 3429 
Q 1922 3584 2338 3584 
Q 2397 3584 2469 3576 
Q 2541 3569 2628 3553 
L 2631 2963 
z
" transform="scale(0.015625)"/>
       <path id="DejaVuSans-20" transform="scale(0.015625)"/>
       <path id="DejaVuSans-6f" d="M 1959 3097 
Q 1497 3097 1228 2736 
Q 959 2375 959 1747 
Q 959 1119 1226 758 
Q 1494 397 1959 397 
Q 2419 397 2687 759 
Q 2956 1122 2956 1747 
Q 2956 2369 2687 2733 
Q 2419 3097 1959 3097 
z
M 1959 3584 
Q 2709 3584 3137 3096 
Q 3566 2609 3566 1747 
Q 3566 888 3137 398 
Q 2709 -91 1959 -91 
Q 1206 -91 779 398 
Q 353 888 353 1747 
Q 353 2609 779 3096 
Q 1206 3584 1959 3584 
z
" transform="scale(0.015625)"/>
       <path id="DejaVuSans-66" d="M 2375 4863 
L 2375 4384 
L 1825 4384 
Q 1516 4384 1395 4259 
Q 1275 4134 1275 3809 
L 1275 3500 
L 2222 3500 
L 2222 3053 
L 1275 3053 
L 1275 0 
L 697 0 
L 697 3053 
L 147 3053 
L 147 3500 
L 697 3500 
L 697 3744 
Q 697 4328 969 4595 
Q 1241 4863 1831 4863 
L 2375 4863 
z
" transform="scale(0.015625)"/>
       <path id="DejaVuSans-63" d="M 3122 3366 
L 3122 2828 
Q 2878 2963 2633 3030 
Q 2388 3097 2138 3097 
Q 1578 3097 1268 2742 
Q 959 2388 959 1747 
Q 959 1106 1268 751 
Q 1578 397 2138 397 
Q 2388 397 2633 464 
Q 2878 531 3122 666 
L 3122 134 
Q 2881 22 2623 -34 
Q 2366 -91 2075 -91 
Q 1284 -91 818 406 
Q 353 903 353 1747 
Q 353 2603 823 3093 
Q 1294 3584 2113 3584 
Q 2378 3584 2631 3529 
Q 2884 3475 3122 3366 
z
" transform="scale(0.015625)"/>
       <path id="DejaVuSans-70" d="M 1159 525 
L 1159 -1331 
L 581 -1331 
L 581 3500 
L 1159 3500 
L 1159 2969 
Q 1341 3281 1617 3432 
Q 1894 3584 2278 3584 
Q 2916 3584 3314 3078 
Q 3713 2572 3713 1747 
Q 3713 922 3314 415 
Q 2916 -91 2278 -91 
Q 1894 -91 1617 61 
Q 1341 213 1159 525 
z
M 3116 1747 
Q 3116 2381 2855 2742 
Q 2594 3103 2138 3103 
Q 1681 3103 1420 2742 
Q 1159 2381 1159 1747 
Q 1159 1113 1420 752 
Q 1681 391 2138 391 
Q 2594 391 2855 752 
Q 3116 1113 3116 1747 
z
" transform="scale(0.015625)"/>
       <path id="DejaVuSans-74" d="M 1172 4494 
L 1172 3500 
L 2356 3500 
L 2356 3053 
L 1172 3053 
L 1172 1153 
Q 1172 725 1289 603 
Q 1406 481 1766 481 
L 2356 481 
L 2356 0 
L 1766 0 
Q 1100 0 847 248 
Q 594 497 594 1153 
L 594 3053 
L 172 3053 
L 172 3500 
L 594 3500 
L 594 4494 
L 1172 4494 
z
" transform="scale(0.015625)"/>
       <path id="DejaVuSans-73" d="M 2834 3397 
L 2834 2853 
Q 2591 2978 2328 3040 
Q 2066 3103 1784 3103 
Q 1356 3103 1142 2972 
Q 928 2841 928 2578 
Q 928 2378 1081 2264 
Q 1234 2150 1697 2047 
L 1894 2003 
Q 2506 1872 2764 1633 
Q 3022 1394 3022 966 
Q 3022 478 2636 193 
Q 2250 -91 1575 -91 
Q 1294 -91 989 -36 
Q 684 19 347 128 
L 347 722 
Q 666 556 975 473 
Q 1284 391 1588 391 
Q 1994 391 2212 530 
Q 2431 669 2431 922 
Q 2431 1156 2273 1281 
Q 2116 1406 1581 1522 
L 1381 1569 
Q 847 1681 609 1914 
Q 372 2147 372 2553 
Q 372 3047 722 3315 
Q 1072 3584 1716 3584 
Q 2034 3584 2315 3537 
Q 2597 3491 2834 3397 
z
" transform="scale(0.015625)"/>
       <path id="DejaVuSans-69" d="M 603 3500 
L 1178 3500 
L 1178 0 
L 603 0 
L 603 3500 
z
M 603 4863 
L 1178 4863 
L 1178 4134 
L 603 4134 
L 603 4863 
z
" transform="scale(0.015625)"/>
       <path id="DejaVuSans-64" d="M 2906 2969 
L 2906 4863 
L 3481 4863 
L 3481 0 
L 2906 0 
L 2906 525 
Q 2725 213 2448 61 
Q 2172 -91 1784 -91 
Q 1150 -91 751 415 
Q 353 922 353 1747 
Q 353 2572 751 3078 
Q 1150 3584 1784 3584 
Q 2172 3584 2448 3432 
Q 2725 3281 2906 2969 
z
M 947 1747 
Q 947 1113 1208 752 
Q 1469 391 1925 391 
Q 2381 391 2643 752 
Q 2906 1113 2906 1747 
Q 2906 2381 2643 2742 
Q 2381 3103 1925 3103 
Q 1469 3103 1208 2742 
Q 947 2381 947 1747 
z
" transform="scale(0.015625)"/>
       <path id="DejaVuSans-6c" d="M 603 4863 
L 1178 4863 
L 1178 0 
L 603 0 
L 603 4863 
z
" transform="scale(0.015625)"/>
      </defs>
      <use xlink:href="#DejaVuSans-6e"/>
      <use xlink:href="#DejaVuSans-75" x="63.378906"/>
      <use xlink:href="#DejaVuSans-6d" x="126.757812"/>
      <use xlink:href="#DejaVuSans-62" x="224.169922"/>
      <use xlink:href="#DejaVuSans-65" x="287.646484"/>
      <use xlink:href="#DejaVuSans-72" x="349.169922"/>
      <use xlink:href="#DejaVuSans-20" x="390.283203"/>
      <use xlink:href="#DejaVuSans-6f" x="422.070312"/>
      <use xlink:href="#DejaVuSans-66" x="483.251953"/>
      <use xlink:href="#DejaVuSans-20" x="518.457031"/>
      <use xlink:href="#DejaVuSans-63" x="550.244141"/>
      <use xlink:href="#DejaVuSans-6f" x="605.224609"/>
      <use xlink:href="#DejaVuSans-6d" x="666.40625"/>
      <use xlink:href="#DejaVuSans-70" x="763.818359"/>
      <use xlink:href="#DejaVuSans-6f" x="827.294922"/>
      <use xlink:href="#DejaVuSans-6e" x="888.476562"/>
      <use xlink:href="#DejaVuSans-65" x="951.855469"/>
      <use xlink:href="#DejaVuSans-6e" x="1013.378906"/>
      <use xlink:href="#DejaVuSans-74" x="1076.757812"/>
      <use xlink:href="#DejaVuSans-73" x="1115.966797"/>
      <use xlink:href="#DejaVuSans-20" x="1168.066406"/>
      <use xlink:href="#DejaVuSans-69" x="1199.853516"/>
      <use xlink:href="#DejaVuSans-6e" x="1227.636719"/>
      <use xlink:href="#DejaVuSans-20" x="1291.015625"/>
      <use xlink:href="#DejaVuSans-6d" x="1322.802734"/>
      <use xlink:href="#DejaVuSans-6f" x="1420.214844"/>
      <use xlink:href="#DejaVuSans-64" x="1481.396484"/>
      <use xlink:href="#DejaVuSans-65" x="1544.873047"/>
      <use xlink:href="#DejaVuSans-6c" x="1606.396484"/>
     </g>
    </g>
   </g>
   <g id="matplotlib.axis_2">
    <g id="text_7">
     <!-- cumulative variance explained (%) -->
     <g style="fill: #262626" transform="translate(13.0356 224.5482)rotate(-90)scale(0.0768 -0.0768)">
      <defs>
       <path id="DejaVuSans-61" d="M 2194 1759 
Q 1497 1759 1228 1600 
Q 959 1441 959 1056 
Q 959 750 1161 570 
Q 1363 391 1709 391 
Q 2188 391 2477 730 
Q 2766 1069 2766 1631 
L 2766 1759 
L 2194 1759 
z
M 3341 1997 
L 3341 0 
L 2766 0 
L 2766 531 
Q 2569 213 2275 61 
Q 1981 -91 1556 -91 
Q 1019 -91 701 211 
Q 384 513 384 1019 
Q 384 1609 779 1909 
Q 1175 2209 1959 2209 
L 2766 2209 
L 2766 2266 
Q 2766 2663 2505 2880 
Q 2244 3097 1772 3097 
Q 1472 3097 1187 3025 
Q 903 2953 641 2809 
L 641 3341 
Q 956 3463 1253 3523 
Q 1550 3584 1831 3584 
Q 2591 3584 2966 3190 
Q 3341 2797 3341 1997 
z
" transform="scale(0.015625)"/>
       <path id="DejaVuSans-76" d="M 191 3500 
L 800 3500 
L 1894 563 
L 2988 3500 
L 3597 3500 
L 2284 0 
L 1503 0 
L 191 3500 
z
" transform="scale(0.015625)"/>
       <path id="DejaVuSans-78" d="M 3513 3500 
L 2247 1797 
L 3578 0 
L 2900 0 
L 1881 1375 
L 863 0 
L 184 0 
L 1544 1831 
L 300 3500 
L 978 3500 
L 1906 2253 
L 2834 3500 
L 3513 3500 
z
" transform="scale(0.015625)"/>
       <path id="DejaVuSans-28" d="M 1984 4856 
Q 1566 4138 1362 3434 
Q 1159 2731 1159 2009 
Q 1159 1288 1364 580 
Q 1569 -128 1984 -844 
L 1484 -844 
Q 1016 -109 783 600 
Q 550 1309 550 2009 
Q 550 2706 781 3412 
Q 1013 4119 1484 4856 
L 1984 4856 
z
" transform="scale(0.015625)"/>
       <path id="DejaVuSans-25" d="M 4653 2053 
Q 4381 2053 4226 1822 
Q 4072 1591 4072 1178 
Q 4072 772 4226 539 
Q 4381 306 4653 306 
Q 4919 306 5073 539 
Q 5228 772 5228 1178 
Q 5228 1588 5073 1820 
Q 4919 2053 4653 2053 
z
M 4653 2450 
Q 5147 2450 5437 2106 
Q 5728 1763 5728 1178 
Q 5728 594 5436 251 
Q 5144 -91 4653 -91 
Q 4153 -91 3862 251 
Q 3572 594 3572 1178 
Q 3572 1766 3864 2108 
Q 4156 2450 4653 2450 
z
M 1428 4353 
Q 1159 4353 1004 4120 
Q 850 3888 850 3481 
Q 850 3069 1003 2837 
Q 1156 2606 1428 2606 
Q 1700 2606 1854 2837 
Q 2009 3069 2009 3481 
Q 2009 3884 1853 4118 
Q 1697 4353 1428 4353 
z
M 4250 4750 
L 4750 4750 
L 1831 -91 
L 1331 -91 
L 4250 4750 
z
M 1428 4750 
Q 1922 4750 2215 4408 
Q 2509 4066 2509 3481 
Q 2509 2891 2217 2550 
Q 1925 2209 1428 2209 
Q 931 2209 642 2551 
Q 353 2894 353 3481 
Q 353 4063 643 4406 
Q 934 4750 1428 4750 
z
" transform="scale(0.015625)"/>
       <path id="DejaVuSans-29" d="M 513 4856 
L 1013 4856 
Q 1481 4119 1714 3412 
Q 1947 2706 1947 2009 
Q 1947 1309 1714 600 
Q 1481 -109 1013 -844 
L 513 -844 
Q 928 -128 1133 580 
Q 1338 1288 1338 2009 
Q 1338 2731 1133 3434 
Q 928 4138 513 4856 
z
" transform="scale(0.015625)"/>
      </defs>
      <use xlink:href="#DejaVuSans-63"/>
      <use xlink:href="#DejaVuSans-75" x="54.980469"/>
      <use xlink:href="#DejaVuSans-6d" x="118.359375"/>
      <use xlink:href="#DejaVuSans-75" x="215.771484"/>
      <use xlink:href="#DejaVuSans-6c" x="279.150391"/>
      <use xlink:href="#DejaVuSans-61" x="306.933594"/>
      <use xlink:href="#DejaVuSans-74" x="368.212891"/>
      <use xlink:href="#DejaVuSans-69" x="407.421875"/>
      <use xlink:href="#DejaVuSans-76" x="435.205078"/>
      <use xlink:href="#DejaVuSans-65" x="494.384766"/>
      <use xlink:href="#DejaVuSans-20" x="555.908203"/>
      <use xlink:href="#DejaVuSans-76" x="587.695312"/>
      <use xlink:href="#DejaVuSans-61" x="646.875"/>
      <use xlink:href="#DejaVuSans-72" x="708.154297"/>
      <use xlink:href="#DejaVuSans-69" x="749.267578"/>
      <use xlink:href="#DejaVuSans-61" x="777.050781"/>
      <use xlink:href="#DejaVuSans-6e" x="838.330078"/>
      <use xlink:href="#DejaVuSans-63" x="901.708984"/>
      <use xlink:href="#DejaVuSans-65" x="956.689453"/>
      <use xlink:href="#DejaVuSans-20" x="1018.212891"/>
      <use xlink:href="#DejaVuSans-65" x="1050"/>
      <use xlink:href="#DejaVuSans-78" x="1109.773438"/>
      <use xlink:href="#DejaVuSans-70" x="1168.953125"/>
      <use xlink:href="#DejaVuSans-6c" x="1232.429688"/>
      <use xlink:href="#DejaVuSans-61" x="1260.212891"/>
      <use xlink:href="#DejaVuSans-69" x="1321.492188"/>
      <use xlink:href="#DejaVuSans-6e" x="1349.275391"/>
      <use xlink:href="#DejaVuSans-65" x="1412.654297"/>
      <use xlink:href="#DejaVuSans-64" x="1474.177734"/>
      <use xlink:href="#DejaVuSans-20" x="1537.654297"/>
      <use xlink:href="#DejaVuSans-28" x="1569.441406"/>
      <use xlink:href="#DejaVuSans-25" x="1608.455078"/>
      <use xlink:href="#DejaVuSans-29" x="1703.474609"/>
     </g>
    </g>
   </g>
   <g id="line2d_1">
    <path d="M 29.660468 283.6356 
L 30.640705 251.809105 
L 31.620942 226.732289 
L 33.581417 191.425569 
L 34.561654 177.202477 
L 35.541891 165.721154 
L 36.522128 156.389524 
L 37.502365 149.088178 
L 39.46284 139.437069 
L 41.423314 131.802028 
L 43.383788 125.836267 
L 45.344262 120.888744 
L 47.304737 116.453596 
L 49.265211 112.613441 
L 51.225685 109.263287 
L 53.18616 106.307468 
L 56.126871 102.393078 
L 59.067583 98.906472 
L 62.008294 95.771428 
L 66.90948 90.987962 
L 70.830428 87.507933 
L 75.731614 83.513579 
L 79.652563 80.524906 
L 84.553749 77.087537 
L 89.454934 73.86818 
L 94.35612 70.89335 
L 100.237543 67.609251 
L 106.118966 64.588869 
L 113.960863 60.873381 
L 120.822523 57.887957 
L 126.703946 55.536074 
L 134.545843 52.661712 
L 143.367978 49.679624 
L 151.209875 47.279017 
L 159.051772 45.082115 
L 167.873907 42.836327 
L 177.676278 40.611122 
L 187.47865 38.621002 
L 197.281021 36.853911 
L 208.06363 35.185898 
L 217.866002 33.888141 
L 227.668373 32.801231 
L 238.450982 31.84717 
L 242.37193 31.6356 
L 250.213828 31.6356 
L 250.213828 31.6356 
" clip-path="url(#pd2b6657c42)" style="fill: none; stroke: #800080; stroke-width: 2.5; stroke-linecap: round"/>
   </g>
   <g id="line2d_2">
    <path d="M 18.6328 157.6356 
L 261.241496 157.6356 
" clip-path="url(#pd2b6657c42)" style="fill: none; stroke: #d3d3d3; stroke-width: 0.25; stroke-linecap: round"/>
   </g>
   <g id="line2d_3">
    <path d="M 36.522128 296.2356 
L 36.522128 19.0356 
" clip-path="url(#pd2b6657c42)" style="fill: none; stroke-dasharray: 2,3.3; stroke-dashoffset: 0; stroke: #1f77b4; stroke-width: 2"/>
   </g>
   <g id="line2d_4">
    <path d="M 18.6328 107.2356 
L 261.241496 107.2356 
" clip-path="url(#pd2b6657c42)" style="fill: none; stroke: #d3d3d3; stroke-width: 0.25; stroke-linecap: round"/>
   </g>
   <g id="line2d_5">
    <path d="M 53.18616 296.2356 
L 53.18616 19.0356 
" clip-path="url(#pd2b6657c42)" style="fill: none; stroke-dasharray: 2,3.3; stroke-dashoffset: 0; stroke: #ff7f0e; stroke-width: 2"/>
   </g>
   <g id="line2d_6">
    <path d="M 18.6328 56.8356 
L 261.241496 56.8356 
" clip-path="url(#pd2b6657c42)" style="fill: none; stroke: #d3d3d3; stroke-width: 0.25; stroke-linecap: round"/>
   </g>
   <g id="line2d_7">
    <path d="M 123.763235 296.2356 
L 123.763235 19.0356 
" clip-path="url(#pd2b6657c42)" style="fill: none; stroke-dasharray: 2,3.3; stroke-dashoffset: 0; stroke: #2ca02c; stroke-width: 2"/>
   </g>
   <g id="patch_3">
    <path d="M 18.6328 296.2356 
L 261.241496 296.2356 
" style="fill: none; stroke: #cccccc; stroke-linejoin: miter; stroke-linecap: square"/>
   </g>
   <g id="text_8">
    <g id="patch_4">
     <path d="M 29.660468 160.343033 
L 36.442791 160.343033 
Q 38.041767 160.343033 38.041767 158.744057 
L 38.041767 153.585694 
Q 38.041767 151.986718 36.442791 151.986718 
L 29.660468 151.986718 
Q 28.061492 151.986718 28.061492 153.585694 
L 28.061492 158.744057 
Q 28.061492 160.343033 29.660468 160.343033 
z
" style="fill: #ffffff; opacity: 0.8"/>
    </g>
    <!-- 50 -->
    <g style="fill: #262626" transform="translate(29.660468 157.6356)scale(0.053299 -0.053299)">
     <use xlink:href="#DejaVuSans-35"/>
     <use xlink:href="#DejaVuSans-30" x="63.623047"/>
    </g>
   </g>
   <g id="text_9">
    <g id="patch_5">
     <path d="M 42.497617 221.560379 
L 42.497617 172.304617 
Q 42.497617 170.970601 41.163601 170.970601 
L 31.880656 170.970601 
Q 30.54664 170.970601 30.54664 172.304617 
L 30.54664 221.560379 
Q 30.54664 222.894395 31.880656 222.894395 
L 41.163601 222.894395 
Q 42.497617 222.894395 42.497617 221.560379 
z
" style="fill: #ffffff; opacity: 0.8"/>
    </g>
    <!-- 7 components explain -->
    <g style="fill: #262626" transform="translate(35.259468 221.560379)rotate(-90)scale(0.044467 -0.044467)">
     <defs>
      <path id="DejaVuSans-37" d="M 525 4666 
L 3525 4666 
L 3525 4397 
L 1831 0 
L 1172 0 
L 2766 4134 
L 525 4134 
L 525 4666 
z
" transform="scale(0.015625)"/>
     </defs>
     <use xlink:href="#DejaVuSans-37"/>
     <use xlink:href="#DejaVuSans-20" x="63.623047"/>
     <use xlink:href="#DejaVuSans-63" x="95.410156"/>
     <use xlink:href="#DejaVuSans-6f" x="150.390625"/>
     <use xlink:href="#DejaVuSans-6d" x="211.572266"/>
     <use xlink:href="#DejaVuSans-70" x="308.984375"/>
     <use xlink:href="#DejaVuSans-6f" x="372.460938"/>
     <use xlink:href="#DejaVuSans-6e" x="433.642578"/>
     <use xlink:href="#DejaVuSans-65" x="497.021484"/>
     <use xlink:href="#DejaVuSans-6e" x="558.544922"/>
     <use xlink:href="#DejaVuSans-74" x="621.923828"/>
     <use xlink:href="#DejaVuSans-73" x="661.132812"/>
     <use xlink:href="#DejaVuSans-20" x="713.232422"/>
     <use xlink:href="#DejaVuSans-65" x="745.019531"/>
     <use xlink:href="#DejaVuSans-78" x="804.792969"/>
     <use xlink:href="#DejaVuSans-70" x="863.972656"/>
     <use xlink:href="#DejaVuSans-6c" x="927.449219"/>
     <use xlink:href="#DejaVuSans-61" x="955.232422"/>
     <use xlink:href="#DejaVuSans-69" x="1016.511719"/>
     <use xlink:href="#DejaVuSans-6e" x="1044.294922"/>
    </g>
    <!-- 50% of variance -->
    <g style="fill: #262626" transform="translate(40.238822 215.002856)rotate(-90)scale(0.044467 -0.044467)">
     <use xlink:href="#DejaVuSans-35"/>
     <use xlink:href="#DejaVuSans-30" x="63.623047"/>
     <use xlink:href="#DejaVuSans-25" x="127.246094"/>
     <use xlink:href="#DejaVuSans-20" x="222.265625"/>
     <use xlink:href="#DejaVuSans-6f" x="254.052734"/>
     <use xlink:href="#DejaVuSans-66" x="315.234375"/>
     <use xlink:href="#DejaVuSans-20" x="350.439453"/>
     <use xlink:href="#DejaVuSans-76" x="382.226562"/>
     <use xlink:href="#DejaVuSans-61" x="441.40625"/>
     <use xlink:href="#DejaVuSans-72" x="502.685547"/>
     <use xlink:href="#DejaVuSans-69" x="543.798828"/>
     <use xlink:href="#DejaVuSans-61" x="571.582031"/>
     <use xlink:href="#DejaVuSans-6e" x="632.861328"/>
     <use xlink:href="#DejaVuSans-63" x="696.240234"/>
     <use xlink:href="#DejaVuSans-65" x="751.220703"/>
    </g>
   </g>
   <g id="text_10">
    <g id="patch_6">
     <path d="M 29.660468 109.943033 
L 36.442791 109.943033 
Q 38.041767 109.943033 38.041767 108.344057 
L 38.041767 103.185694 
Q 38.041767 101.586718 36.442791 101.586718 
L 29.660468 101.586718 
Q 28.061492 101.586718 28.061492 103.185694 
L 28.061492 108.344057 
Q 28.061492 109.943033 29.660468 109.943033 
z
" style="fill: #ffffff; opacity: 0.8"/>
    </g>
    <!-- 70 -->
    <g style="fill: #262626" transform="translate(29.660468 107.2356)scale(0.053299 -0.053299)">
     <use xlink:href="#DejaVuSans-37"/>
     <use xlink:href="#DejaVuSans-30" x="63.623047"/>
    </g>
   </g>
   <g id="text_11">
    <g id="patch_7">
     <path d="M 59.161648 221.560379 
L 59.161648 169.475392 
Q 59.161648 168.141376 57.827632 168.141376 
L 48.544687 168.141376 
Q 47.210671 168.141376 47.210671 169.475392 
L 47.210671 221.560379 
Q 47.210671 222.894395 48.544687 222.894395 
L 57.827632 222.894395 
Q 59.161648 222.894395 59.161648 221.560379 
z
" style="fill: #ffffff; opacity: 0.8"/>
    </g>
    <!-- 24 components explain -->
    <g style="fill: #262626" transform="translate(51.9235 221.560379)rotate(-90)scale(0.044467 -0.044467)">
     <defs>
      <path id="DejaVuSans-34" d="M 2419 4116 
L 825 1625 
L 2419 1625 
L 2419 4116 
z
M 2253 4666 
L 3047 4666 
L 3047 1625 
L 3713 1625 
L 3713 1100 
L 3047 1100 
L 3047 0 
L 2419 0 
L 2419 1100 
L 313 1100 
L 313 1709 
L 2253 4666 
z
" transform="scale(0.015625)"/>
     </defs>
     <use xlink:href="#DejaVuSans-32"/>
     <use xlink:href="#DejaVuSans-34" x="63.623047"/>
     <use xlink:href="#DejaVuSans-20" x="127.246094"/>
     <use xlink:href="#DejaVuSans-63" x="159.033203"/>
     <use xlink:href="#DejaVuSans-6f" x="214.013672"/>
     <use xlink:href="#DejaVuSans-6d" x="275.195312"/>
     <use xlink:href="#DejaVuSans-70" x="372.607422"/>
     <use xlink:href="#DejaVuSans-6f" x="436.083984"/>
     <use xlink:href="#DejaVuSans-6e" x="497.265625"/>
     <use xlink:href="#DejaVuSans-65" x="560.644531"/>
     <use xlink:href="#DejaVuSans-6e" x="622.167969"/>
     <use xlink:href="#DejaVuSans-74" x="685.546875"/>
     <use xlink:href="#DejaVuSans-73" x="724.755859"/>
     <use xlink:href="#DejaVuSans-20" x="776.855469"/>
     <use xlink:href="#DejaVuSans-65" x="808.642578"/>
     <use xlink:href="#DejaVuSans-78" x="868.416016"/>
     <use xlink:href="#DejaVuSans-70" x="927.595703"/>
     <use xlink:href="#DejaVuSans-6c" x="991.072266"/>
     <use xlink:href="#DejaVuSans-61" x="1018.855469"/>
     <use xlink:href="#DejaVuSans-69" x="1080.134766"/>
     <use xlink:href="#DejaVuSans-6e" x="1107.917969"/>
    </g>
    <!-- 70% of variance -->
    <g style="fill: #262626" transform="translate(56.902853 213.588244)rotate(-90)scale(0.044467 -0.044467)">
     <use xlink:href="#DejaVuSans-37"/>
     <use xlink:href="#DejaVuSans-30" x="63.623047"/>
     <use xlink:href="#DejaVuSans-25" x="127.246094"/>
     <use xlink:href="#DejaVuSans-20" x="222.265625"/>
     <use xlink:href="#DejaVuSans-6f" x="254.052734"/>
     <use xlink:href="#DejaVuSans-66" x="315.234375"/>
     <use xlink:href="#DejaVuSans-20" x="350.439453"/>
     <use xlink:href="#DejaVuSans-76" x="382.226562"/>
     <use xlink:href="#DejaVuSans-61" x="441.40625"/>
     <use xlink:href="#DejaVuSans-72" x="502.685547"/>
     <use xlink:href="#DejaVuSans-69" x="543.798828"/>
     <use xlink:href="#DejaVuSans-61" x="571.582031"/>
     <use xlink:href="#DejaVuSans-6e" x="632.861328"/>
     <use xlink:href="#DejaVuSans-63" x="696.240234"/>
     <use xlink:href="#DejaVuSans-65" x="751.220703"/>
    </g>
   </g>
   <g id="text_12">
    <g id="patch_8">
     <path d="M 29.660468 59.543033 
L 36.442791 59.543033 
Q 38.041767 59.543033 38.041767 57.944057 
L 38.041767 52.785694 
Q 38.041767 51.186718 36.442791 51.186718 
L 29.660468 51.186718 
Q 28.061492 51.186718 28.061492 52.785694 
L 28.061492 57.944057 
Q 28.061492 59.543033 29.660468 59.543033 
z
" style="fill: #ffffff; opacity: 0.8"/>
    </g>
    <!-- 90 -->
    <g style="fill: #262626" transform="translate(29.660468 56.8356)scale(0.053299 -0.053299)">
     <defs>
      <path id="DejaVuSans-39" d="M 703 97 
L 703 672 
Q 941 559 1184 500 
Q 1428 441 1663 441 
Q 2288 441 2617 861 
Q 2947 1281 2994 2138 
Q 2813 1869 2534 1725 
Q 2256 1581 1919 1581 
Q 1219 1581 811 2004 
Q 403 2428 403 3163 
Q 403 3881 828 4315 
Q 1253 4750 1959 4750 
Q 2769 4750 3195 4129 
Q 3622 3509 3622 2328 
Q 3622 1225 3098 567 
Q 2575 -91 1691 -91 
Q 1453 -91 1209 -44 
Q 966 3 703 97 
z
M 1959 2075 
Q 2384 2075 2632 2365 
Q 2881 2656 2881 3163 
Q 2881 3666 2632 3958 
Q 2384 4250 1959 4250 
Q 1534 4250 1286 3958 
Q 1038 3666 1038 3163 
Q 1038 2656 1286 2365 
Q 1534 2075 1959 2075 
z
" transform="scale(0.015625)"/>
     </defs>
     <use xlink:href="#DejaVuSans-39"/>
     <use xlink:href="#DejaVuSans-30" x="63.623047"/>
    </g>
   </g>
   <g id="text_13">
    <g id="patch_9">
     <path d="M 129.738723 221.560379 
L 129.738723 169.475392 
Q 129.738723 168.141376 128.404707 168.141376 
L 119.121762 168.141376 
Q 117.787746 168.141376 117.787746 169.475392 
L 117.787746 221.560379 
Q 117.787746 222.894395 119.121762 222.894395 
L 128.404707 222.894395 
Q 129.738723 222.894395 129.738723 221.560379 
z
" style="fill: #ffffff; opacity: 0.8"/>
    </g>
    <!-- 96 components explain -->
    <g style="fill: #262626" transform="translate(122.500575 221.560379)rotate(-90)scale(0.044467 -0.044467)">
     <defs>
      <path id="DejaVuSans-36" d="M 2113 2584 
Q 1688 2584 1439 2293 
Q 1191 2003 1191 1497 
Q 1191 994 1439 701 
Q 1688 409 2113 409 
Q 2538 409 2786 701 
Q 3034 994 3034 1497 
Q 3034 2003 2786 2293 
Q 2538 2584 2113 2584 
z
M 3366 4563 
L 3366 3988 
Q 3128 4100 2886 4159 
Q 2644 4219 2406 4219 
Q 1781 4219 1451 3797 
Q 1122 3375 1075 2522 
Q 1259 2794 1537 2939 
Q 1816 3084 2150 3084 
Q 2853 3084 3261 2657 
Q 3669 2231 3669 1497 
Q 3669 778 3244 343 
Q 2819 -91 2113 -91 
Q 1303 -91 875 529 
Q 447 1150 447 2328 
Q 447 3434 972 4092 
Q 1497 4750 2381 4750 
Q 2619 4750 2861 4703 
Q 3103 4656 3366 4563 
z
" transform="scale(0.015625)"/>
     </defs>
     <use xlink:href="#DejaVuSans-39"/>
     <use xlink:href="#DejaVuSans-36" x="63.623047"/>
     <use xlink:href="#DejaVuSans-20" x="127.246094"/>
     <use xlink:href="#DejaVuSans-63" x="159.033203"/>
     <use xlink:href="#DejaVuSans-6f" x="214.013672"/>
     <use xlink:href="#DejaVuSans-6d" x="275.195312"/>
     <use xlink:href="#DejaVuSans-70" x="372.607422"/>
     <use xlink:href="#DejaVuSans-6f" x="436.083984"/>
     <use xlink:href="#DejaVuSans-6e" x="497.265625"/>
     <use xlink:href="#DejaVuSans-65" x="560.644531"/>
     <use xlink:href="#DejaVuSans-6e" x="622.167969"/>
     <use xlink:href="#DejaVuSans-74" x="685.546875"/>
     <use xlink:href="#DejaVuSans-73" x="724.755859"/>
     <use xlink:href="#DejaVuSans-20" x="776.855469"/>
     <use xlink:href="#DejaVuSans-65" x="808.642578"/>
     <use xlink:href="#DejaVuSans-78" x="868.416016"/>
     <use xlink:href="#DejaVuSans-70" x="927.595703"/>
     <use xlink:href="#DejaVuSans-6c" x="991.072266"/>
     <use xlink:href="#DejaVuSans-61" x="1018.855469"/>
     <use xlink:href="#DejaVuSans-69" x="1080.134766"/>
     <use xlink:href="#DejaVuSans-6e" x="1107.917969"/>
    </g>
    <!-- 90% of variance -->
    <g style="fill: #262626" transform="translate(127.479928 213.588244)rotate(-90)scale(0.044467 -0.044467)">
     <use xlink:href="#DejaVuSans-39"/>
     <use xlink:href="#DejaVuSans-30" x="63.623047"/>
     <use xlink:href="#DejaVuSans-25" x="127.246094"/>
     <use xlink:href="#DejaVuSans-20" x="222.265625"/>
     <use xlink:href="#DejaVuSans-6f" x="254.052734"/>
     <use xlink:href="#DejaVuSans-66" x="315.234375"/>
     <use xlink:href="#DejaVuSans-20" x="350.439453"/>
     <use xlink:href="#DejaVuSans-76" x="382.226562"/>
     <use xlink:href="#DejaVuSans-61" x="441.40625"/>
     <use xlink:href="#DejaVuSans-72" x="502.685547"/>
     <use xlink:href="#DejaVuSans-69" x="543.798828"/>
     <use xlink:href="#DejaVuSans-61" x="571.582031"/>
     <use xlink:href="#DejaVuSans-6e" x="632.861328"/>
     <use xlink:href="#DejaVuSans-63" x="696.240234"/>
     <use xlink:href="#DejaVuSans-65" x="751.220703"/>
    </g>
   </g>
   <g id="text_14">
    <!-- aCompCor (CSF mask) -->
    <g style="fill: #262626" transform="translate(96.682548 13.0356)scale(0.0768 -0.0768)">
     <defs>
      <path id="DejaVuSans-43" d="M 4122 4306 
L 4122 3641 
Q 3803 3938 3442 4084 
Q 3081 4231 2675 4231 
Q 1875 4231 1450 3742 
Q 1025 3253 1025 2328 
Q 1025 1406 1450 917 
Q 1875 428 2675 428 
Q 3081 428 3442 575 
Q 3803 722 4122 1019 
L 4122 359 
Q 3791 134 3420 21 
Q 3050 -91 2638 -91 
Q 1578 -91 968 557 
Q 359 1206 359 2328 
Q 359 3453 968 4101 
Q 1578 4750 2638 4750 
Q 3056 4750 3426 4639 
Q 3797 4528 4122 4306 
z
" transform="scale(0.015625)"/>
      <path id="DejaVuSans-53" d="M 3425 4513 
L 3425 3897 
Q 3066 4069 2747 4153 
Q 2428 4238 2131 4238 
Q 1616 4238 1336 4038 
Q 1056 3838 1056 3469 
Q 1056 3159 1242 3001 
Q 1428 2844 1947 2747 
L 2328 2669 
Q 3034 2534 3370 2195 
Q 3706 1856 3706 1288 
Q 3706 609 3251 259 
Q 2797 -91 1919 -91 
Q 1588 -91 1214 -16 
Q 841 59 441 206 
L 441 856 
Q 825 641 1194 531 
Q 1563 422 1919 422 
Q 2459 422 2753 634 
Q 3047 847 3047 1241 
Q 3047 1584 2836 1778 
Q 2625 1972 2144 2069 
L 1759 2144 
Q 1053 2284 737 2584 
Q 422 2884 422 3419 
Q 422 4038 858 4394 
Q 1294 4750 2059 4750 
Q 2388 4750 2728 4690 
Q 3069 4631 3425 4513 
z
" transform="scale(0.015625)"/>
      <path id="DejaVuSans-46" d="M 628 4666 
L 3309 4666 
L 3309 4134 
L 1259 4134 
L 1259 2759 
L 3109 2759 
L 3109 2228 
L 1259 2228 
L 1259 0 
L 628 0 
L 628 4666 
z
" transform="scale(0.015625)"/>
      <path id="DejaVuSans-6b" d="M 581 4863 
L 1159 4863 
L 1159 1991 
L 2875 3500 
L 3609 3500 
L 1753 1863 
L 3688 0 
L 2938 0 
L 1159 1709 
L 1159 0 
L 581 0 
L 581 4863 
z
" transform="scale(0.015625)"/>
     </defs>
     <use xlink:href="#DejaVuSans-61"/>
     <use xlink:href="#DejaVuSans-43" x="61.279297"/>
     <use xlink:href="#DejaVuSans-6f" x="131.103516"/>
     <use xlink:href="#DejaVuSans-6d" x="192.285156"/>
     <use xlink:href="#DejaVuSans-70" x="289.697266"/>
     <use xlink:href="#DejaVuSans-43" x="353.173828"/>
     <use xlink:href="#DejaVuSans-6f" x="422.998047"/>
     <use xlink:href="#DejaVuSans-72" x="484.179688"/>
     <use xlink:href="#DejaVuSans-20" x="525.292969"/>
     <use xlink:href="#DejaVuSans-28" x="557.080078"/>
     <use xlink:href="#DejaVuSans-43" x="596.09375"/>
     <use xlink:href="#DejaVuSans-53" x="665.917969"/>
     <use xlink:href="#DejaVuSans-46" x="729.394531"/>
     <use xlink:href="#DejaVuSans-20" x="786.914062"/>
     <use xlink:href="#DejaVuSans-6d" x="818.701172"/>
     <use xlink:href="#DejaVuSans-61" x="916.113281"/>
     <use xlink:href="#DejaVuSans-73" x="977.392578"/>
     <use xlink:href="#DejaVuSans-6b" x="1029.492188"/>
     <use xlink:href="#DejaVuSans-29" x="1087.402344"/>
    </g>
   </g>
  </g>
  <g id="axes_2">
   <g id="patch_10">
    <path d="M 309.763235 296.2356 
L 552.37193 296.2356 
L 552.37193 19.0356 
L 309.763235 19.0356 
z
" style="fill: #ffffff"/>
   </g>
   <g id="matplotlib.axis_3">
    <g id="xtick_6">
     <g id="text_15">
      <!-- 0 -->
      <g style="fill: #262626" transform="translate(322.261628 307.926762)rotate(-90)scale(0.053299 -0.053299)">
       <use xlink:href="#DejaVuSans-30"/>
      </g>
     </g>
    </g>
    <g id="xtick_7">
     <g id="text_16">
      <!-- 50 -->
      <g style="fill: #262626" transform="translate(371.273485 311.317923)rotate(-90)scale(0.053299 -0.053299)">
       <use xlink:href="#DejaVuSans-35"/>
       <use xlink:href="#DejaVuSans-30" x="63.623047"/>
      </g>
     </g>
    </g>
    <g id="xtick_8">
     <g id="text_17">
      <!-- 100 -->
      <g style="fill: #262626" transform="translate(420.285343 314.709085)rotate(-90)scale(0.053299 -0.053299)">
       <use xlink:href="#DejaVuSans-31"/>
       <use xlink:href="#DejaVuSans-30" x="63.623047"/>
       <use xlink:href="#DejaVuSans-30" x="127.246094"/>
      </g>
     </g>
    </g>
    <g id="xtick_9">
     <g id="text_18">
      <!-- 150 -->
      <g style="fill: #262626" transform="translate(469.297201 314.709085)rotate(-90)scale(0.053299 -0.053299)">
       <use xlink:href="#DejaVuSans-31"/>
       <use xlink:href="#DejaVuSans-35" x="63.623047"/>
       <use xlink:href="#DejaVuSans-30" x="127.246094"/>
      </g>
     </g>
    </g>
    <g id="xtick_10">
     <g id="text_19">
      <!-- 200 -->
      <g style="fill: #262626" transform="translate(518.309058 314.709085)rotate(-90)scale(0.053299 -0.053299)">
       <use xlink:href="#DejaVuSans-32"/>
       <use xlink:href="#DejaVuSans-30" x="63.623047"/>
       <use xlink:href="#DejaVuSans-30" x="127.246094"/>
      </g>
     </g>
    </g>
    <g id="text_20">
     <!-- number of components in model -->
     <g style="fill: #262626" transform="translate(368.315383 324.544685)scale(0.0768 -0.0768)">
      <use xlink:href="#DejaVuSans-6e"/>
      <use xlink:href="#DejaVuSans-75" x="63.378906"/>
      <use xlink:href="#DejaVuSans-6d" x="126.757812"/>
      <use xlink:href="#DejaVuSans-62" x="224.169922"/>
      <use xlink:href="#DejaVuSans-65" x="287.646484"/>
      <use xlink:href="#DejaVuSans-72" x="349.169922"/>
      <use xlink:href="#DejaVuSans-20" x="390.283203"/>
      <use xlink:href="#DejaVuSans-6f" x="422.070312"/>
      <use xlink:href="#DejaVuSans-66" x="483.251953"/>
      <use xlink:href="#DejaVuSans-20" x="518.457031"/>
      <use xlink:href="#DejaVuSans-63" x="550.244141"/>
      <use xlink:href="#DejaVuSans-6f" x="605.224609"/>
      <use xlink:href="#DejaVuSans-6d" x="666.40625"/>
      <use xlink:href="#DejaVuSans-70" x="763.818359"/>
      <use xlink:href="#DejaVuSans-6f" x="827.294922"/>
      <use xlink:href="#DejaVuSans-6e" x="888.476562"/>
      <use xlink:href="#DejaVuSans-65" x="951.855469"/>
      <use xlink:href="#DejaVuSans-6e" x="1013.378906"/>
      <use xlink:href="#DejaVuSans-74" x="1076.757812"/>
      <use xlink:href="#DejaVuSans-73" x="1115.966797"/>
      <use xlink:href="#DejaVuSans-20" x="1168.066406"/>
      <use xlink:href="#DejaVuSans-69" x="1199.853516"/>
      <use xlink:href="#DejaVuSans-6e" x="1227.636719"/>
      <use xlink:href="#DejaVuSans-20" x="1291.015625"/>
      <use xlink:href="#DejaVuSans-6d" x="1322.802734"/>
      <use xlink:href="#DejaVuSans-6f" x="1420.214844"/>
      <use xlink:href="#DejaVuSans-64" x="1481.396484"/>
      <use xlink:href="#DejaVuSans-65" x="1544.873047"/>
      <use xlink:href="#DejaVuSans-6c" x="1606.396484"/>
     </g>
    </g>
   </g>
   <g id="matplotlib.axis_4">
    <g id="text_21">
     <!-- cumulative variance explained (%) -->
     <g style="fill: #262626" transform="translate(304.166035 224.5482)rotate(-90)scale(0.0768 -0.0768)">
      <use xlink:href="#DejaVuSans-63"/>
      <use xlink:href="#DejaVuSans-75" x="54.980469"/>
      <use xlink:href="#DejaVuSans-6d" x="118.359375"/>
      <use xlink:href="#DejaVuSans-75" x="215.771484"/>
      <use xlink:href="#DejaVuSans-6c" x="279.150391"/>
      <use xlink:href="#DejaVuSans-61" x="306.933594"/>
      <use xlink:href="#DejaVuSans-74" x="368.212891"/>
      <use xlink:href="#DejaVuSans-69" x="407.421875"/>
      <use xlink:href="#DejaVuSans-76" x="435.205078"/>
      <use xlink:href="#DejaVuSans-65" x="494.384766"/>
      <use xlink:href="#DejaVuSans-20" x="555.908203"/>
      <use xlink:href="#DejaVuSans-76" x="587.695312"/>
      <use xlink:href="#DejaVuSans-61" x="646.875"/>
      <use xlink:href="#DejaVuSans-72" x="708.154297"/>
      <use xlink:href="#DejaVuSans-69" x="749.267578"/>
      <use xlink:href="#DejaVuSans-61" x="777.050781"/>
      <use xlink:href="#DejaVuSans-6e" x="838.330078"/>
      <use xlink:href="#DejaVuSans-63" x="901.708984"/>
      <use xlink:href="#DejaVuSans-65" x="956.689453"/>
      <use xlink:href="#DejaVuSans-20" x="1018.212891"/>
      <use xlink:href="#DejaVuSans-65" x="1050"/>
      <use xlink:href="#DejaVuSans-78" x="1109.773438"/>
      <use xlink:href="#DejaVuSans-70" x="1168.953125"/>
      <use xlink:href="#DejaVuSans-6c" x="1232.429688"/>
      <use xlink:href="#DejaVuSans-61" x="1260.212891"/>
      <use xlink:href="#DejaVuSans-69" x="1321.492188"/>
      <use xlink:href="#DejaVuSans-6e" x="1349.275391"/>
      <use xlink:href="#DejaVuSans-65" x="1412.654297"/>
      <use xlink:href="#DejaVuSans-64" x="1474.177734"/>
      <use xlink:href="#DejaVuSans-20" x="1537.654297"/>
      <use xlink:href="#DejaVuSans-28" x="1569.441406"/>
      <use xlink:href="#DejaVuSans-25" x="1608.455078"/>
      <use xlink:href="#DejaVuSans-29" x="1703.474609"/>
     </g>
    </g>
   </g>
   <g id="line2d_8">
    <path d="M 320.790903 283.6356 
L 321.77114 257.282808 
L 322.751377 248.211681 
L 323.731614 241.00622 
L 324.711851 235.045957 
L 326.672326 225.648146 
L 327.652563 221.672999 
L 329.613037 215.843762 
L 332.553749 208.083847 
L 334.514223 203.271266 
L 337.454934 196.746799 
L 341.375883 188.703835 
L 344.316594 182.992504 
L 349.21778 174.092403 
L 353.138729 167.410361 
L 357.059677 161.060841 
L 362.9411 152.202068 
L 366.862049 146.619999 
L 372.743472 138.743796 
L 377.644658 132.482072 
L 382.545843 126.551298 
L 388.427266 119.849698 
L 394.308689 113.496406 
L 400.190112 107.466383 
L 406.071535 101.735934 
L 411.952958 96.269033 
L 417.834381 91.071408 
L 424.696041 85.326268 
L 431.557701 79.908545 
L 437.439124 75.55665 
L 443.320547 71.443658 
L 450.182207 66.93883 
L 457.043867 62.669778 
L 463.905527 58.664581 
L 470.767187 54.932505 
L 478.609085 50.97999 
L 486.450982 47.321563 
L 494.292879 43.947726 
L 501.154539 41.238164 
L 508.016199 38.738061 
L 514.877859 36.466972 
L 521.739519 34.400658 
L 528.601179 32.551264 
L 532.522128 31.6356 
L 541.344262 31.6356 
L 541.344262 31.6356 
" clip-path="url(#p8a0c7c0db5)" style="fill: none; stroke: #800080; stroke-width: 2.5; stroke-linecap: round"/>
   </g>
   <g id="line2d_9">
    <path d="M 309.763235 157.6356 
L 552.37193 157.6356 
" clip-path="url(#p8a0c7c0db5)" style="fill: none; stroke: #d3d3d3; stroke-width: 0.25; stroke-linecap: round"/>
   </g>
   <g id="line2d_10">
    <path d="M 360.000389 296.2356 
L 360.000389 19.0356 
" clip-path="url(#p8a0c7c0db5)" style="fill: none; stroke-dasharray: 2,3.3; stroke-dashoffset: 0; stroke: #1f77b4; stroke-width: 2"/>
   </g>
   <g id="line2d_11">
    <path d="M 309.763235 107.2356 
L 552.37193 107.2356 
" clip-path="url(#p8a0c7c0db5)" style="fill: none; stroke: #d3d3d3; stroke-width: 0.25; stroke-linecap: round"/>
   </g>
   <g id="line2d_12">
    <path d="M 401.170349 296.2356 
L 401.170349 19.0356 
" clip-path="url(#p8a0c7c0db5)" style="fill: none; stroke-dasharray: 2,3.3; stroke-dashoffset: 0; stroke: #ff7f0e; stroke-width: 2"/>
   </g>
   <g id="line2d_13">
    <path d="M 309.763235 56.8356 
L 552.37193 56.8356 
" clip-path="url(#p8a0c7c0db5)" style="fill: none; stroke: #d3d3d3; stroke-width: 0.25; stroke-linecap: round"/>
   </g>
   <g id="line2d_14">
    <path d="M 467.826476 296.2356 
L 467.826476 19.0356 
" clip-path="url(#p8a0c7c0db5)" style="fill: none; stroke-dasharray: 2,3.3; stroke-dashoffset: 0; stroke: #2ca02c; stroke-width: 2"/>
   </g>
   <g id="patch_11">
    <path d="M 309.763235 296.2356 
L 552.37193 296.2356 
" style="fill: none; stroke: #cccccc; stroke-linejoin: miter; stroke-linecap: square"/>
   </g>
   <g id="text_22">
    <g id="patch_12">
     <path d="M 320.790903 160.343033 
L 327.573226 160.343033 
Q 329.172202 160.343033 329.172202 158.744057 
L 329.172202 153.585694 
Q 329.172202 151.986718 327.573226 151.986718 
L 320.790903 151.986718 
Q 319.191927 151.986718 319.191927 153.585694 
L 319.191927 158.744057 
Q 319.191927 160.343033 320.790903 160.343033 
z
" style="fill: #ffffff; opacity: 0.8"/>
    </g>
    <!-- 50 -->
    <g style="fill: #262626" transform="translate(320.790903 157.6356)scale(0.053299 -0.053299)">
     <use xlink:href="#DejaVuSans-35"/>
     <use xlink:href="#DejaVuSans-30" x="63.623047"/>
    </g>
   </g>
   <g id="text_23">
    <g id="patch_13">
     <path d="M 365.975877 221.560379 
L 365.975877 169.475392 
Q 365.975877 168.141376 364.641861 168.141376 
L 355.358916 168.141376 
Q 354.0249 168.141376 354.0249 169.475392 
L 354.0249 221.560379 
Q 354.0249 222.894395 355.358916 222.894395 
L 364.641861 222.894395 
Q 365.975877 222.894395 365.975877 221.560379 
z
" style="fill: #ffffff; opacity: 0.8"/>
    </g>
    <!-- 40 components explain -->
    <g style="fill: #262626" transform="translate(358.737729 221.560379)rotate(-90)scale(0.044467 -0.044467)">
     <use xlink:href="#DejaVuSans-34"/>
     <use xlink:href="#DejaVuSans-30" x="63.623047"/>
     <use xlink:href="#DejaVuSans-20" x="127.246094"/>
     <use xlink:href="#DejaVuSans-63" x="159.033203"/>
     <use xlink:href="#DejaVuSans-6f" x="214.013672"/>
     <use xlink:href="#DejaVuSans-6d" x="275.195312"/>
     <use xlink:href="#DejaVuSans-70" x="372.607422"/>
     <use xlink:href="#DejaVuSans-6f" x="436.083984"/>
     <use xlink:href="#DejaVuSans-6e" x="497.265625"/>
     <use xlink:href="#DejaVuSans-65" x="560.644531"/>
     <use xlink:href="#DejaVuSans-6e" x="622.167969"/>
     <use xlink:href="#DejaVuSans-74" x="685.546875"/>
     <use xlink:href="#DejaVuSans-73" x="724.755859"/>
     <use xlink:href="#DejaVuSans-20" x="776.855469"/>
     <use xlink:href="#DejaVuSans-65" x="808.642578"/>
     <use xlink:href="#DejaVuSans-78" x="868.416016"/>
     <use xlink:href="#DejaVuSans-70" x="927.595703"/>
     <use xlink:href="#DejaVuSans-6c" x="991.072266"/>
     <use xlink:href="#DejaVuSans-61" x="1018.855469"/>
     <use xlink:href="#DejaVuSans-69" x="1080.134766"/>
     <use xlink:href="#DejaVuSans-6e" x="1107.917969"/>
    </g>
    <!-- 50% of variance -->
    <g style="fill: #262626" transform="translate(363.717083 213.588244)rotate(-90)scale(0.044467 -0.044467)">
     <use xlink:href="#DejaVuSans-35"/>
     <use xlink:href="#DejaVuSans-30" x="63.623047"/>
     <use xlink:href="#DejaVuSans-25" x="127.246094"/>
     <use xlink:href="#DejaVuSans-20" x="222.265625"/>
     <use xlink:href="#DejaVuSans-6f" x="254.052734"/>
     <use xlink:href="#DejaVuSans-66" x="315.234375"/>
     <use xlink:href="#DejaVuSans-20" x="350.439453"/>
     <use xlink:href="#DejaVuSans-76" x="382.226562"/>
     <use xlink:href="#DejaVuSans-61" x="441.40625"/>
     <use xlink:href="#DejaVuSans-72" x="502.685547"/>
     <use xlink:href="#DejaVuSans-69" x="543.798828"/>
     <use xlink:href="#DejaVuSans-61" x="571.582031"/>
     <use xlink:href="#DejaVuSans-6e" x="632.861328"/>
     <use xlink:href="#DejaVuSans-63" x="696.240234"/>
     <use xlink:href="#DejaVuSans-65" x="751.220703"/>
    </g>
   </g>
   <g id="text_24">
    <g id="patch_14">
     <path d="M 320.790903 109.943033 
L 327.573226 109.943033 
Q 329.172202 109.943033 329.172202 108.344057 
L 329.172202 103.185694 
Q 329.172202 101.586718 327.573226 101.586718 
L 320.790903 101.586718 
Q 319.191927 101.586718 319.191927 103.185694 
L 319.191927 108.344057 
Q 319.191927 109.943033 320.790903 109.943033 
z
" style="fill: #ffffff; opacity: 0.8"/>
    </g>
    <!-- 70 -->
    <g style="fill: #262626" transform="translate(320.790903 107.2356)scale(0.053299 -0.053299)">
     <use xlink:href="#DejaVuSans-37"/>
     <use xlink:href="#DejaVuSans-30" x="63.623047"/>
    </g>
   </g>
   <g id="text_25">
    <g id="patch_15">
     <path d="M 407.145838 221.560379 
L 407.145838 169.475392 
Q 407.145838 168.141376 405.811822 168.141376 
L 396.528877 168.141376 
Q 395.194861 168.141376 395.194861 169.475392 
L 395.194861 221.560379 
Q 395.194861 222.894395 396.528877 222.894395 
L 405.811822 222.894395 
Q 407.145838 222.894395 407.145838 221.560379 
z
" style="fill: #ffffff; opacity: 0.8"/>
    </g>
    <!-- 82 components explain -->
    <g style="fill: #262626" transform="translate(399.907689 221.560379)rotate(-90)scale(0.044467 -0.044467)">
     <defs>
      <path id="DejaVuSans-38" d="M 2034 2216 
Q 1584 2216 1326 1975 
Q 1069 1734 1069 1313 
Q 1069 891 1326 650 
Q 1584 409 2034 409 
Q 2484 409 2743 651 
Q 3003 894 3003 1313 
Q 3003 1734 2745 1975 
Q 2488 2216 2034 2216 
z
M 1403 2484 
Q 997 2584 770 2862 
Q 544 3141 544 3541 
Q 544 4100 942 4425 
Q 1341 4750 2034 4750 
Q 2731 4750 3128 4425 
Q 3525 4100 3525 3541 
Q 3525 3141 3298 2862 
Q 3072 2584 2669 2484 
Q 3125 2378 3379 2068 
Q 3634 1759 3634 1313 
Q 3634 634 3220 271 
Q 2806 -91 2034 -91 
Q 1263 -91 848 271 
Q 434 634 434 1313 
Q 434 1759 690 2068 
Q 947 2378 1403 2484 
z
M 1172 3481 
Q 1172 3119 1398 2916 
Q 1625 2713 2034 2713 
Q 2441 2713 2670 2916 
Q 2900 3119 2900 3481 
Q 2900 3844 2670 4047 
Q 2441 4250 2034 4250 
Q 1625 4250 1398 4047 
Q 1172 3844 1172 3481 
z
" transform="scale(0.015625)"/>
     </defs>
     <use xlink:href="#DejaVuSans-38"/>
     <use xlink:href="#DejaVuSans-32" x="63.623047"/>
     <use xlink:href="#DejaVuSans-20" x="127.246094"/>
     <use xlink:href="#DejaVuSans-63" x="159.033203"/>
     <use xlink:href="#DejaVuSans-6f" x="214.013672"/>
     <use xlink:href="#DejaVuSans-6d" x="275.195312"/>
     <use xlink:href="#DejaVuSans-70" x="372.607422"/>
     <use xlink:href="#DejaVuSans-6f" x="436.083984"/>
     <use xlink:href="#DejaVuSans-6e" x="497.265625"/>
     <use xlink:href="#DejaVuSans-65" x="560.644531"/>
     <use xlink:href="#DejaVuSans-6e" x="622.167969"/>
     <use xlink:href="#DejaVuSans-74" x="685.546875"/>
     <use xlink:href="#DejaVuSans-73" x="724.755859"/>
     <use xlink:href="#DejaVuSans-20" x="776.855469"/>
     <use xlink:href="#DejaVuSans-65" x="808.642578"/>
     <use xlink:href="#DejaVuSans-78" x="868.416016"/>
     <use xlink:href="#DejaVuSans-70" x="927.595703"/>
     <use xlink:href="#DejaVuSans-6c" x="991.072266"/>
     <use xlink:href="#DejaVuSans-61" x="1018.855469"/>
     <use xlink:href="#DejaVuSans-69" x="1080.134766"/>
     <use xlink:href="#DejaVuSans-6e" x="1107.917969"/>
    </g>
    <!-- 70% of variance -->
    <g style="fill: #262626" transform="translate(404.887043 213.588244)rotate(-90)scale(0.044467 -0.044467)">
     <use xlink:href="#DejaVuSans-37"/>
     <use xlink:href="#DejaVuSans-30" x="63.623047"/>
     <use xlink:href="#DejaVuSans-25" x="127.246094"/>
     <use xlink:href="#DejaVuSans-20" x="222.265625"/>
     <use xlink:href="#DejaVuSans-6f" x="254.052734"/>
     <use xlink:href="#DejaVuSans-66" x="315.234375"/>
     <use xlink:href="#DejaVuSans-20" x="350.439453"/>
     <use xlink:href="#DejaVuSans-76" x="382.226562"/>
     <use xlink:href="#DejaVuSans-61" x="441.40625"/>
     <use xlink:href="#DejaVuSans-72" x="502.685547"/>
     <use xlink:href="#DejaVuSans-69" x="543.798828"/>
     <use xlink:href="#DejaVuSans-61" x="571.582031"/>
     <use xlink:href="#DejaVuSans-6e" x="632.861328"/>
     <use xlink:href="#DejaVuSans-63" x="696.240234"/>
     <use xlink:href="#DejaVuSans-65" x="751.220703"/>
    </g>
   </g>
   <g id="text_26">
    <g id="patch_16">
     <path d="M 320.790903 59.543033 
L 327.573226 59.543033 
Q 329.172202 59.543033 329.172202 57.944057 
L 329.172202 52.785694 
Q 329.172202 51.186718 327.573226 51.186718 
L 320.790903 51.186718 
Q 319.191927 51.186718 319.191927 52.785694 
L 319.191927 57.944057 
Q 319.191927 59.543033 320.790903 59.543033 
z
" style="fill: #ffffff; opacity: 0.8"/>
    </g>
    <!-- 90 -->
    <g style="fill: #262626" transform="translate(320.790903 56.8356)scale(0.053299 -0.053299)">
     <use xlink:href="#DejaVuSans-39"/>
     <use xlink:href="#DejaVuSans-30" x="63.623047"/>
    </g>
   </g>
   <g id="text_27">
    <g id="patch_17">
     <path d="M 473.801964 221.560379 
L 473.801964 166.646166 
Q 473.801964 165.31215 472.467948 165.31215 
L 463.185003 165.31215 
Q 461.850987 165.31215 461.850987 166.646166 
L 461.850987 221.560379 
Q 461.850987 222.894395 463.185003 222.894395 
L 472.467948 222.894395 
Q 473.801964 222.894395 473.801964 221.560379 
z
" style="fill: #ffffff; opacity: 0.8"/>
    </g>
    <!-- 150 components explain -->
    <g style="fill: #262626" transform="translate(466.563816 221.560379)rotate(-90)scale(0.044467 -0.044467)">
     <use xlink:href="#DejaVuSans-31"/>
     <use xlink:href="#DejaVuSans-35" x="63.623047"/>
     <use xlink:href="#DejaVuSans-30" x="127.246094"/>
     <use xlink:href="#DejaVuSans-20" x="190.869141"/>
     <use xlink:href="#DejaVuSans-63" x="222.65625"/>
     <use xlink:href="#DejaVuSans-6f" x="277.636719"/>
     <use xlink:href="#DejaVuSans-6d" x="338.818359"/>
     <use xlink:href="#DejaVuSans-70" x="436.230469"/>
     <use xlink:href="#DejaVuSans-6f" x="499.707031"/>
     <use xlink:href="#DejaVuSans-6e" x="560.888672"/>
     <use xlink:href="#DejaVuSans-65" x="624.267578"/>
     <use xlink:href="#DejaVuSans-6e" x="685.791016"/>
     <use xlink:href="#DejaVuSans-74" x="749.169922"/>
     <use xlink:href="#DejaVuSans-73" x="788.378906"/>
     <use xlink:href="#DejaVuSans-20" x="840.478516"/>
     <use xlink:href="#DejaVuSans-65" x="872.265625"/>
     <use xlink:href="#DejaVuSans-78" x="932.039062"/>
     <use xlink:href="#DejaVuSans-70" x="991.21875"/>
     <use xlink:href="#DejaVuSans-6c" x="1054.695312"/>
     <use xlink:href="#DejaVuSans-61" x="1082.478516"/>
     <use xlink:href="#DejaVuSans-69" x="1143.757812"/>
     <use xlink:href="#DejaVuSans-6e" x="1171.541016"/>
    </g>
    <!-- 90% of variance -->
    <g style="fill: #262626" transform="translate(471.54317 212.173631)rotate(-90)scale(0.044467 -0.044467)">
     <use xlink:href="#DejaVuSans-39"/>
     <use xlink:href="#DejaVuSans-30" x="63.623047"/>
     <use xlink:href="#DejaVuSans-25" x="127.246094"/>
     <use xlink:href="#DejaVuSans-20" x="222.265625"/>
     <use xlink:href="#DejaVuSans-6f" x="254.052734"/>
     <use xlink:href="#DejaVuSans-66" x="315.234375"/>
     <use xlink:href="#DejaVuSans-20" x="350.439453"/>
     <use xlink:href="#DejaVuSans-76" x="382.226562"/>
     <use xlink:href="#DejaVuSans-61" x="441.40625"/>
     <use xlink:href="#DejaVuSans-72" x="502.685547"/>
     <use xlink:href="#DejaVuSans-69" x="543.798828"/>
     <use xlink:href="#DejaVuSans-61" x="571.582031"/>
     <use xlink:href="#DejaVuSans-6e" x="632.861328"/>
     <use xlink:href="#DejaVuSans-63" x="696.240234"/>
     <use xlink:href="#DejaVuSans-65" x="751.220703"/>
    </g>
   </g>
   <g id="text_28">
    <!-- aCompCor (WM mask) -->
    <g style="fill: #262626" transform="translate(388.030783 13.0356)scale(0.0768 -0.0768)">
     <defs>
      <path id="DejaVuSans-57" d="M 213 4666 
L 850 4666 
L 1831 722 
L 2809 4666 
L 3519 4666 
L 4500 722 
L 5478 4666 
L 6119 4666 
L 4947 0 
L 4153 0 
L 3169 4050 
L 2175 0 
L 1381 0 
L 213 4666 
z
" transform="scale(0.015625)"/>
      <path id="DejaVuSans-4d" d="M 628 4666 
L 1569 4666 
L 2759 1491 
L 3956 4666 
L 4897 4666 
L 4897 0 
L 4281 0 
L 4281 4097 
L 3078 897 
L 2444 897 
L 1241 4097 
L 1241 0 
L 628 0 
L 628 4666 
z
" transform="scale(0.015625)"/>
     </defs>
     <use xlink:href="#DejaVuSans-61"/>
     <use xlink:href="#DejaVuSans-43" x="61.279297"/>
     <use xlink:href="#DejaVuSans-6f" x="131.103516"/>
     <use xlink:href="#DejaVuSans-6d" x="192.285156"/>
     <use xlink:href="#DejaVuSans-70" x="289.697266"/>
     <use xlink:href="#DejaVuSans-43" x="353.173828"/>
     <use xlink:href="#DejaVuSans-6f" x="422.998047"/>
     <use xlink:href="#DejaVuSans-72" x="484.179688"/>
     <use xlink:href="#DejaVuSans-20" x="525.292969"/>
     <use xlink:href="#DejaVuSans-28" x="557.080078"/>
     <use xlink:href="#DejaVuSans-57" x="596.09375"/>
     <use xlink:href="#DejaVuSans-4d" x="694.970703"/>
     <use xlink:href="#DejaVuSans-20" x="781.25"/>
     <use xlink:href="#DejaVuSans-6d" x="813.037109"/>
     <use xlink:href="#DejaVuSans-61" x="910.449219"/>
     <use xlink:href="#DejaVuSans-73" x="971.728516"/>
     <use xlink:href="#DejaVuSans-6b" x="1023.828125"/>
     <use xlink:href="#DejaVuSans-29" x="1081.738281"/>
    </g>
   </g>
  </g>
  <g id="axes_3">
   <g id="patch_18">
    <path d="M 600.89367 296.2356 
L 843.502365 296.2356 
L 843.502365 19.0356 
L 600.89367 19.0356 
z
" style="fill: #ffffff"/>
   </g>
   <g id="matplotlib.axis_5">
    <g id="xtick_11">
     <g id="text_29">
      <!-- 0 -->
      <g style="fill: #262626" transform="translate(613.392062 307.926762)rotate(-90)scale(0.053299 -0.053299)">
       <use xlink:href="#DejaVuSans-30"/>
      </g>
     </g>
    </g>
    <g id="xtick_12">
     <g id="text_30">
      <!-- 50 -->
      <g style="fill: #262626" transform="translate(662.40392 311.317923)rotate(-90)scale(0.053299 -0.053299)">
       <use xlink:href="#DejaVuSans-35"/>
       <use xlink:href="#DejaVuSans-30" x="63.623047"/>
      </g>
     </g>
    </g>
    <g id="xtick_13">
     <g id="text_31">
      <!-- 100 -->
      <g style="fill: #262626" transform="translate(711.415778 314.709085)rotate(-90)scale(0.053299 -0.053299)">
       <use xlink:href="#DejaVuSans-31"/>
       <use xlink:href="#DejaVuSans-30" x="63.623047"/>
       <use xlink:href="#DejaVuSans-30" x="127.246094"/>
      </g>
     </g>
    </g>
    <g id="xtick_14">
     <g id="text_32">
      <!-- 150 -->
      <g style="fill: #262626" transform="translate(760.427635 314.709085)rotate(-90)scale(0.053299 -0.053299)">
       <use xlink:href="#DejaVuSans-31"/>
       <use xlink:href="#DejaVuSans-35" x="63.623047"/>
       <use xlink:href="#DejaVuSans-30" x="127.246094"/>
      </g>
     </g>
    </g>
    <g id="xtick_15">
     <g id="text_33">
      <!-- 200 -->
      <g style="fill: #262626" transform="translate(809.439493 314.709085)rotate(-90)scale(0.053299 -0.053299)">
       <use xlink:href="#DejaVuSans-32"/>
       <use xlink:href="#DejaVuSans-30" x="63.623047"/>
       <use xlink:href="#DejaVuSans-30" x="127.246094"/>
      </g>
     </g>
    </g>
    <g id="text_34">
     <!-- number of components in model -->
     <g style="fill: #262626" transform="translate(659.445817 324.544685)scale(0.0768 -0.0768)">
      <use xlink:href="#DejaVuSans-6e"/>
      <use xlink:href="#DejaVuSans-75" x="63.378906"/>
      <use xlink:href="#DejaVuSans-6d" x="126.757812"/>
      <use xlink:href="#DejaVuSans-62" x="224.169922"/>
      <use xlink:href="#DejaVuSans-65" x="287.646484"/>
      <use xlink:href="#DejaVuSans-72" x="349.169922"/>
      <use xlink:href="#DejaVuSans-20" x="390.283203"/>
      <use xlink:href="#DejaVuSans-6f" x="422.070312"/>
      <use xlink:href="#DejaVuSans-66" x="483.251953"/>
      <use xlink:href="#DejaVuSans-20" x="518.457031"/>
      <use xlink:href="#DejaVuSans-63" x="550.244141"/>
      <use xlink:href="#DejaVuSans-6f" x="605.224609"/>
      <use xlink:href="#DejaVuSans-6d" x="666.40625"/>
      <use xlink:href="#DejaVuSans-70" x="763.818359"/>
      <use xlink:href="#DejaVuSans-6f" x="827.294922"/>
      <use xlink:href="#DejaVuSans-6e" x="888.476562"/>
      <use xlink:href="#DejaVuSans-65" x="951.855469"/>
      <use xlink:href="#DejaVuSans-6e" x="1013.378906"/>
      <use xlink:href="#DejaVuSans-74" x="1076.757812"/>
      <use xlink:href="#DejaVuSans-73" x="1115.966797"/>
      <use xlink:href="#DejaVuSans-20" x="1168.066406"/>
      <use xlink:href="#DejaVuSans-69" x="1199.853516"/>
      <use xlink:href="#DejaVuSans-6e" x="1227.636719"/>
      <use xlink:href="#DejaVuSans-20" x="1291.015625"/>
      <use xlink:href="#DejaVuSans-6d" x="1322.802734"/>
      <use xlink:href="#DejaVuSans-6f" x="1420.214844"/>
      <use xlink:href="#DejaVuSans-64" x="1481.396484"/>
      <use xlink:href="#DejaVuSans-65" x="1544.873047"/>
      <use xlink:href="#DejaVuSans-6c" x="1606.396484"/>
     </g>
    </g>
   </g>
   <g id="matplotlib.axis_6">
    <g id="text_35">
     <!-- cumulative variance explained (%) -->
     <g style="fill: #262626" transform="translate(595.29647 224.5482)rotate(-90)scale(0.0768 -0.0768)">
      <use xlink:href="#DejaVuSans-63"/>
      <use xlink:href="#DejaVuSans-75" x="54.980469"/>
      <use xlink:href="#DejaVuSans-6d" x="118.359375"/>
      <use xlink:href="#DejaVuSans-75" x="215.771484"/>
      <use xlink:href="#DejaVuSans-6c" x="279.150391"/>
      <use xlink:href="#DejaVuSans-61" x="306.933594"/>
      <use xlink:href="#DejaVuSans-74" x="368.212891"/>
      <use xlink:href="#DejaVuSans-69" x="407.421875"/>
      <use xlink:href="#DejaVuSans-76" x="435.205078"/>
      <use xlink:href="#DejaVuSans-65" x="494.384766"/>
      <use xlink:href="#DejaVuSans-20" x="555.908203"/>
      <use xlink:href="#DejaVuSans-76" x="587.695312"/>
      <use xlink:href="#DejaVuSans-61" x="646.875"/>
      <use xlink:href="#DejaVuSans-72" x="708.154297"/>
      <use xlink:href="#DejaVuSans-69" x="749.267578"/>
      <use xlink:href="#DejaVuSans-61" x="777.050781"/>
      <use xlink:href="#DejaVuSans-6e" x="838.330078"/>
      <use xlink:href="#DejaVuSans-63" x="901.708984"/>
      <use xlink:href="#DejaVuSans-65" x="956.689453"/>
      <use xlink:href="#DejaVuSans-20" x="1018.212891"/>
      <use xlink:href="#DejaVuSans-65" x="1050"/>
      <use xlink:href="#DejaVuSans-78" x="1109.773438"/>
      <use xlink:href="#DejaVuSans-70" x="1168.953125"/>
      <use xlink:href="#DejaVuSans-6c" x="1232.429688"/>
      <use xlink:href="#DejaVuSans-61" x="1260.212891"/>
      <use xlink:href="#DejaVuSans-69" x="1321.492188"/>
      <use xlink:href="#DejaVuSans-6e" x="1349.275391"/>
      <use xlink:href="#DejaVuSans-65" x="1412.654297"/>
      <use xlink:href="#DejaVuSans-64" x="1474.177734"/>
      <use xlink:href="#DejaVuSans-20" x="1537.654297"/>
      <use xlink:href="#DejaVuSans-28" x="1569.441406"/>
      <use xlink:href="#DejaVuSans-25" x="1608.455078"/>
      <use xlink:href="#DejaVuSans-29" x="1703.474609"/>
     </g>
    </g>
   </g>
   <g id="line2d_15">
    <path d="M 611.921338 283.6356 
L 612.901575 257.537104 
L 613.881812 248.321811 
L 614.862049 240.646953 
L 615.842286 234.581772 
L 616.822523 229.512502 
L 618.782998 221.028701 
L 620.743472 215.18078 
L 622.703946 209.924685 
L 625.644658 202.60764 
L 629.565606 194.044871 
L 633.486555 186.142769 
L 637.407504 178.802977 
L 641.328452 171.826155 
L 646.229638 163.663468 
L 651.130824 156.097421 
L 656.032009 148.962216 
L 660.933195 142.22429 
L 666.814618 134.606871 
L 671.715804 128.58244 
L 676.61699 122.87605 
L 683.47865 115.359972 
L 690.34031 108.26287 
L 697.20197 101.587907 
L 704.06363 95.259674 
L 710.92529 89.307429 
L 717.78695 83.669111 
L 723.668373 79.096826 
L 730.530033 74.098383 
L 736.411456 70.092397 
L 744.253353 65.060954 
L 751.115013 60.911272 
L 757.976674 57.036588 
L 764.838334 53.422815 
L 772.680231 49.570462 
L 779.541891 46.453163 
L 786.403551 43.550367 
L 793.265211 40.880771 
L 801.107108 38.076934 
L 808.949006 35.563257 
L 816.790903 33.316742 
L 822.672326 31.856932 
L 823.652563 31.6356 
L 832.474697 31.6356 
L 832.474697 31.6356 
" clip-path="url(#p20ae1f6b0a)" style="fill: none; stroke: #800080; stroke-width: 2.5; stroke-linecap: round"/>
   </g>
   <g id="line2d_16">
    <path d="M 600.89367 157.6356 
L 843.502365 157.6356 
" clip-path="url(#p20ae1f6b0a)" style="fill: none; stroke: #d3d3d3; stroke-width: 0.25; stroke-linecap: round"/>
   </g>
   <g id="line2d_17">
    <path d="M 650.150587 296.2356 
L 650.150587 19.0356 
" clip-path="url(#p20ae1f6b0a)" style="fill: none; stroke-dasharray: 2,3.3; stroke-dashoffset: 0; stroke: #1f77b4; stroke-width: 2"/>
   </g>
   <g id="line2d_18">
    <path d="M 600.89367 107.2356 
L 843.502365 107.2356 
" clip-path="url(#p20ae1f6b0a)" style="fill: none; stroke: #d3d3d3; stroke-width: 0.25; stroke-linecap: round"/>
   </g>
   <g id="line2d_19">
    <path d="M 692.300784 296.2356 
L 692.300784 19.0356 
" clip-path="url(#p20ae1f6b0a)" style="fill: none; stroke-dasharray: 2,3.3; stroke-dashoffset: 0; stroke: #ff7f0e; stroke-width: 2"/>
   </g>
   <g id="line2d_20">
    <path d="M 600.89367 56.8356 
L 843.502365 56.8356 
" clip-path="url(#p20ae1f6b0a)" style="fill: none; stroke: #d3d3d3; stroke-width: 0.25; stroke-linecap: round"/>
   </g>
   <g id="line2d_21">
    <path d="M 758.956911 296.2356 
L 758.956911 19.0356 
" clip-path="url(#p20ae1f6b0a)" style="fill: none; stroke-dasharray: 2,3.3; stroke-dashoffset: 0; stroke: #2ca02c; stroke-width: 2"/>
   </g>
   <g id="patch_19">
    <path d="M 600.89367 296.2356 
L 843.502365 296.2356 
" style="fill: none; stroke: #cccccc; stroke-linejoin: miter; stroke-linecap: square"/>
   </g>
   <g id="text_36">
    <g id="patch_20">
     <path d="M 611.921338 160.343033 
L 618.703661 160.343033 
Q 620.302637 160.343033 620.302637 158.744057 
L 620.302637 153.585694 
Q 620.302637 151.986718 618.703661 151.986718 
L 611.921338 151.986718 
Q 610.322362 151.986718 610.322362 153.585694 
L 610.322362 158.744057 
Q 610.322362 160.343033 611.921338 160.343033 
z
" style="fill: #ffffff; opacity: 0.8"/>
    </g>
    <!-- 50 -->
    <g style="fill: #262626" transform="translate(611.921338 157.6356)scale(0.053299 -0.053299)">
     <use xlink:href="#DejaVuSans-35"/>
     <use xlink:href="#DejaVuSans-30" x="63.623047"/>
    </g>
   </g>
   <g id="text_37">
    <g id="patch_21">
     <path d="M 656.126075 221.560379 
L 656.126075 169.475392 
Q 656.126075 168.141376 654.792059 168.141376 
L 645.509114 168.141376 
Q 644.175098 168.141376 644.175098 169.475392 
L 644.175098 221.560379 
Q 644.175098 222.894395 645.509114 222.894395 
L 654.792059 222.894395 
Q 656.126075 222.894395 656.126075 221.560379 
z
" style="fill: #ffffff; opacity: 0.8"/>
    </g>
    <!-- 39 components explain -->
    <g style="fill: #262626" transform="translate(648.887927 221.560379)rotate(-90)scale(0.044467 -0.044467)">
     <defs>
      <path id="DejaVuSans-33" d="M 2597 2516 
Q 3050 2419 3304 2112 
Q 3559 1806 3559 1356 
Q 3559 666 3084 287 
Q 2609 -91 1734 -91 
Q 1441 -91 1130 -33 
Q 819 25 488 141 
L 488 750 
Q 750 597 1062 519 
Q 1375 441 1716 441 
Q 2309 441 2620 675 
Q 2931 909 2931 1356 
Q 2931 1769 2642 2001 
Q 2353 2234 1838 2234 
L 1294 2234 
L 1294 2753 
L 1863 2753 
Q 2328 2753 2575 2939 
Q 2822 3125 2822 3475 
Q 2822 3834 2567 4026 
Q 2313 4219 1838 4219 
Q 1578 4219 1281 4162 
Q 984 4106 628 3988 
L 628 4550 
Q 988 4650 1302 4700 
Q 1616 4750 1894 4750 
Q 2613 4750 3031 4423 
Q 3450 4097 3450 3541 
Q 3450 3153 3228 2886 
Q 3006 2619 2597 2516 
z
" transform="scale(0.015625)"/>
     </defs>
     <use xlink:href="#DejaVuSans-33"/>
     <use xlink:href="#DejaVuSans-39" x="63.623047"/>
     <use xlink:href="#DejaVuSans-20" x="127.246094"/>
     <use xlink:href="#DejaVuSans-63" x="159.033203"/>
     <use xlink:href="#DejaVuSans-6f" x="214.013672"/>
     <use xlink:href="#DejaVuSans-6d" x="275.195312"/>
     <use xlink:href="#DejaVuSans-70" x="372.607422"/>
     <use xlink:href="#DejaVuSans-6f" x="436.083984"/>
     <use xlink:href="#DejaVuSans-6e" x="497.265625"/>
     <use xlink:href="#DejaVuSans-65" x="560.644531"/>
     <use xlink:href="#DejaVuSans-6e" x="622.167969"/>
     <use xlink:href="#DejaVuSans-74" x="685.546875"/>
     <use xlink:href="#DejaVuSans-73" x="724.755859"/>
     <use xlink:href="#DejaVuSans-20" x="776.855469"/>
     <use xlink:href="#DejaVuSans-65" x="808.642578"/>
     <use xlink:href="#DejaVuSans-78" x="868.416016"/>
     <use xlink:href="#DejaVuSans-70" x="927.595703"/>
     <use xlink:href="#DejaVuSans-6c" x="991.072266"/>
     <use xlink:href="#DejaVuSans-61" x="1018.855469"/>
     <use xlink:href="#DejaVuSans-69" x="1080.134766"/>
     <use xlink:href="#DejaVuSans-6e" x="1107.917969"/>
    </g>
    <!-- 50% of variance -->
    <g style="fill: #262626" transform="translate(653.86728 213.588244)rotate(-90)scale(0.044467 -0.044467)">
     <use xlink:href="#DejaVuSans-35"/>
     <use xlink:href="#DejaVuSans-30" x="63.623047"/>
     <use xlink:href="#DejaVuSans-25" x="127.246094"/>
     <use xlink:href="#DejaVuSans-20" x="222.265625"/>
     <use xlink:href="#DejaVuSans-6f" x="254.052734"/>
     <use xlink:href="#DejaVuSans-66" x="315.234375"/>
     <use xlink:href="#DejaVuSans-20" x="350.439453"/>
     <use xlink:href="#DejaVuSans-76" x="382.226562"/>
     <use xlink:href="#DejaVuSans-61" x="441.40625"/>
     <use xlink:href="#DejaVuSans-72" x="502.685547"/>
     <use xlink:href="#DejaVuSans-69" x="543.798828"/>
     <use xlink:href="#DejaVuSans-61" x="571.582031"/>
     <use xlink:href="#DejaVuSans-6e" x="632.861328"/>
     <use xlink:href="#DejaVuSans-63" x="696.240234"/>
     <use xlink:href="#DejaVuSans-65" x="751.220703"/>
    </g>
   </g>
   <g id="text_38">
    <g id="patch_22">
     <path d="M 611.921338 109.943033 
L 618.703661 109.943033 
Q 620.302637 109.943033 620.302637 108.344057 
L 620.302637 103.185694 
Q 620.302637 101.586718 618.703661 101.586718 
L 611.921338 101.586718 
Q 610.322362 101.586718 610.322362 103.185694 
L 610.322362 108.344057 
Q 610.322362 109.943033 611.921338 109.943033 
z
" style="fill: #ffffff; opacity: 0.8"/>
    </g>
    <!-- 70 -->
    <g style="fill: #262626" transform="translate(611.921338 107.2356)scale(0.053299 -0.053299)">
     <use xlink:href="#DejaVuSans-37"/>
     <use xlink:href="#DejaVuSans-30" x="63.623047"/>
    </g>
   </g>
   <g id="text_39">
    <g id="patch_23">
     <path d="M 698.276273 221.560379 
L 698.276273 169.475392 
Q 698.276273 168.141376 696.942257 168.141376 
L 687.659312 168.141376 
Q 686.325296 168.141376 686.325296 169.475392 
L 686.325296 221.560379 
Q 686.325296 222.894395 687.659312 222.894395 
L 696.942257 222.894395 
Q 698.276273 222.894395 698.276273 221.560379 
z
" style="fill: #ffffff; opacity: 0.8"/>
    </g>
    <!-- 82 components explain -->
    <g style="fill: #262626" transform="translate(691.038124 221.560379)rotate(-90)scale(0.044467 -0.044467)">
     <use xlink:href="#DejaVuSans-38"/>
     <use xlink:href="#DejaVuSans-32" x="63.623047"/>
     <use xlink:href="#DejaVuSans-20" x="127.246094"/>
     <use xlink:href="#DejaVuSans-63" x="159.033203"/>
     <use xlink:href="#DejaVuSans-6f" x="214.013672"/>
     <use xlink:href="#DejaVuSans-6d" x="275.195312"/>
     <use xlink:href="#DejaVuSans-70" x="372.607422"/>
     <use xlink:href="#DejaVuSans-6f" x="436.083984"/>
     <use xlink:href="#DejaVuSans-6e" x="497.265625"/>
     <use xlink:href="#DejaVuSans-65" x="560.644531"/>
     <use xlink:href="#DejaVuSans-6e" x="622.167969"/>
     <use xlink:href="#DejaVuSans-74" x="685.546875"/>
     <use xlink:href="#DejaVuSans-73" x="724.755859"/>
     <use xlink:href="#DejaVuSans-20" x="776.855469"/>
     <use xlink:href="#DejaVuSans-65" x="808.642578"/>
     <use xlink:href="#DejaVuSans-78" x="868.416016"/>
     <use xlink:href="#DejaVuSans-70" x="927.595703"/>
     <use xlink:href="#DejaVuSans-6c" x="991.072266"/>
     <use xlink:href="#DejaVuSans-61" x="1018.855469"/>
     <use xlink:href="#DejaVuSans-69" x="1080.134766"/>
     <use xlink:href="#DejaVuSans-6e" x="1107.917969"/>
    </g>
    <!-- 70% of variance -->
    <g style="fill: #262626" transform="translate(696.017478 213.588244)rotate(-90)scale(0.044467 -0.044467)">
     <use xlink:href="#DejaVuSans-37"/>
     <use xlink:href="#DejaVuSans-30" x="63.623047"/>
     <use xlink:href="#DejaVuSans-25" x="127.246094"/>
     <use xlink:href="#DejaVuSans-20" x="222.265625"/>
     <use xlink:href="#DejaVuSans-6f" x="254.052734"/>
     <use xlink:href="#DejaVuSans-66" x="315.234375"/>
     <use xlink:href="#DejaVuSans-20" x="350.439453"/>
     <use xlink:href="#DejaVuSans-76" x="382.226562"/>
     <use xlink:href="#DejaVuSans-61" x="441.40625"/>
     <use xlink:href="#DejaVuSans-72" x="502.685547"/>
     <use xlink:href="#DejaVuSans-69" x="543.798828"/>
     <use xlink:href="#DejaVuSans-61" x="571.582031"/>
     <use xlink:href="#DejaVuSans-6e" x="632.861328"/>
     <use xlink:href="#DejaVuSans-63" x="696.240234"/>
     <use xlink:href="#DejaVuSans-65" x="751.220703"/>
    </g>
   </g>
   <g id="text_40">
    <g id="patch_24">
     <path d="M 611.921338 59.543033 
L 618.703661 59.543033 
Q 620.302637 59.543033 620.302637 57.944057 
L 620.302637 52.785694 
Q 620.302637 51.186718 618.703661 51.186718 
L 611.921338 51.186718 
Q 610.322362 51.186718 610.322362 52.785694 
L 610.322362 57.944057 
Q 610.322362 59.543033 611.921338 59.543033 
z
" style="fill: #ffffff; opacity: 0.8"/>
    </g>
    <!-- 90 -->
    <g style="fill: #262626" transform="translate(611.921338 56.8356)scale(0.053299 -0.053299)">
     <use xlink:href="#DejaVuSans-39"/>
     <use xlink:href="#DejaVuSans-30" x="63.623047"/>
    </g>
   </g>
   <g id="text_41">
    <g id="patch_25">
     <path d="M 764.932399 221.560379 
L 764.932399 166.646166 
Q 764.932399 165.31215 763.598383 165.31215 
L 754.315438 165.31215 
Q 752.981422 165.31215 752.981422 166.646166 
L 752.981422 221.560379 
Q 752.981422 222.894395 754.315438 222.894395 
L 763.598383 222.894395 
Q 764.932399 222.894395 764.932399 221.560379 
z
" style="fill: #ffffff; opacity: 0.8"/>
    </g>
    <!-- 150 components explain -->
    <g style="fill: #262626" transform="translate(757.694251 221.560379)rotate(-90)scale(0.044467 -0.044467)">
     <use xlink:href="#DejaVuSans-31"/>
     <use xlink:href="#DejaVuSans-35" x="63.623047"/>
     <use xlink:href="#DejaVuSans-30" x="127.246094"/>
     <use xlink:href="#DejaVuSans-20" x="190.869141"/>
     <use xlink:href="#DejaVuSans-63" x="222.65625"/>
     <use xlink:href="#DejaVuSans-6f" x="277.636719"/>
     <use xlink:href="#DejaVuSans-6d" x="338.818359"/>
     <use xlink:href="#DejaVuSans-70" x="436.230469"/>
     <use xlink:href="#DejaVuSans-6f" x="499.707031"/>
     <use xlink:href="#DejaVuSans-6e" x="560.888672"/>
     <use xlink:href="#DejaVuSans-65" x="624.267578"/>
     <use xlink:href="#DejaVuSans-6e" x="685.791016"/>
     <use xlink:href="#DejaVuSans-74" x="749.169922"/>
     <use xlink:href="#DejaVuSans-73" x="788.378906"/>
     <use xlink:href="#DejaVuSans-20" x="840.478516"/>
     <use xlink:href="#DejaVuSans-65" x="872.265625"/>
     <use xlink:href="#DejaVuSans-78" x="932.039062"/>
     <use xlink:href="#DejaVuSans-70" x="991.21875"/>
     <use xlink:href="#DejaVuSans-6c" x="1054.695312"/>
     <use xlink:href="#DejaVuSans-61" x="1082.478516"/>
     <use xlink:href="#DejaVuSans-69" x="1143.757812"/>
     <use xlink:href="#DejaVuSans-6e" x="1171.541016"/>
    </g>
    <!-- 90% of variance -->
    <g style="fill: #262626" transform="translate(762.673604 212.173631)rotate(-90)scale(0.044467 -0.044467)">
     <use xlink:href="#DejaVuSans-39"/>
     <use xlink:href="#DejaVuSans-30" x="63.623047"/>
     <use xlink:href="#DejaVuSans-25" x="127.246094"/>
     <use xlink:href="#DejaVuSans-20" x="222.265625"/>
     <use xlink:href="#DejaVuSans-6f" x="254.052734"/>
     <use xlink:href="#DejaVuSans-66" x="315.234375"/>
     <use xlink:href="#DejaVuSans-20" x="350.439453"/>
     <use xlink:href="#DejaVuSans-76" x="382.226562"/>
     <use xlink:href="#DejaVuSans-61" x="441.40625"/>
     <use xlink:href="#DejaVuSans-72" x="502.685547"/>
     <use xlink:href="#DejaVuSans-69" x="543.798828"/>
     <use xlink:href="#DejaVuSans-61" x="571.582031"/>
     <use xlink:href="#DejaVuSans-6e" x="632.861328"/>
     <use xlink:href="#DejaVuSans-63" x="696.240234"/>
     <use xlink:href="#DejaVuSans-65" x="751.220703"/>
    </g>
   </g>
   <g id="text_42">
    <!-- aCompCor (combined mask) -->
    <g style="fill: #262626" transform="translate(667.331017 13.0356)scale(0.0768 -0.0768)">
     <use xlink:href="#DejaVuSans-61"/>
     <use xlink:href="#DejaVuSans-43" x="61.279297"/>
     <use xlink:href="#DejaVuSans-6f" x="131.103516"/>
     <use xlink:href="#DejaVuSans-6d" x="192.285156"/>
     <use xlink:href="#DejaVuSans-70" x="289.697266"/>
     <use xlink:href="#DejaVuSans-43" x="353.173828"/>
     <use xlink:href="#DejaVuSans-6f" x="422.998047"/>
     <use xlink:href="#DejaVuSans-72" x="484.179688"/>
     <use xlink:href="#DejaVuSans-20" x="525.292969"/>
     <use xlink:href="#DejaVuSans-28" x="557.080078"/>
     <use xlink:href="#DejaVuSans-63" x="596.09375"/>
     <use xlink:href="#DejaVuSans-6f" x="651.074219"/>
     <use xlink:href="#DejaVuSans-6d" x="712.255859"/>
     <use xlink:href="#DejaVuSans-62" x="809.667969"/>
     <use xlink:href="#DejaVuSans-69" x="873.144531"/>
     <use xlink:href="#DejaVuSans-6e" x="900.927734"/>
     <use xlink:href="#DejaVuSans-65" x="964.306641"/>
     <use xlink:href="#DejaVuSans-64" x="1025.830078"/>
     <use xlink:href="#DejaVuSans-20" x="1089.306641"/>
     <use xlink:href="#DejaVuSans-6d" x="1121.09375"/>
     <use xlink:href="#DejaVuSans-61" x="1218.505859"/>
     <use xlink:href="#DejaVuSans-73" x="1279.785156"/>
     <use xlink:href="#DejaVuSans-6b" x="1331.884766"/>
     <use xlink:href="#DejaVuSans-29" x="1389.794922"/>
    </g>
   </g>
  </g>
  <g id="axes_4">
   <g id="patch_26">
    <path d="M 892.024104 296.2356 
L 1134.6328 296.2356 
L 1134.6328 19.0356 
L 892.024104 19.0356 
z
" style="fill: #ffffff"/>
   </g>
   <g id="matplotlib.axis_7">
    <g id="xtick_16">
     <g id="text_43">
      <!-- 0 -->
      <g style="fill: #262626" transform="translate(904.522497 307.926762)rotate(-90)scale(0.053299 -0.053299)">
       <use xlink:href="#DejaVuSans-30"/>
      </g>
     </g>
    </g>
    <g id="xtick_17">
     <g id="text_44">
      <!-- 50 -->
      <g style="fill: #262626" transform="translate(953.534355 311.317923)rotate(-90)scale(0.053299 -0.053299)">
       <use xlink:href="#DejaVuSans-35"/>
       <use xlink:href="#DejaVuSans-30" x="63.623047"/>
      </g>
     </g>
    </g>
    <g id="xtick_18">
     <g id="text_45">
      <!-- 100 -->
      <g style="fill: #262626" transform="translate(1002.546213 314.709085)rotate(-90)scale(0.053299 -0.053299)">
       <use xlink:href="#DejaVuSans-31"/>
       <use xlink:href="#DejaVuSans-30" x="63.623047"/>
       <use xlink:href="#DejaVuSans-30" x="127.246094"/>
      </g>
     </g>
    </g>
    <g id="xtick_19">
     <g id="text_46">
      <!-- 150 -->
      <g style="fill: #262626" transform="translate(1051.55807 314.709085)rotate(-90)scale(0.053299 -0.053299)">
       <use xlink:href="#DejaVuSans-31"/>
       <use xlink:href="#DejaVuSans-35" x="63.623047"/>
       <use xlink:href="#DejaVuSans-30" x="127.246094"/>
      </g>
     </g>
    </g>
    <g id="xtick_20">
     <g id="text_47">
      <!-- 200 -->
      <g style="fill: #262626" transform="translate(1100.569928 314.709085)rotate(-90)scale(0.053299 -0.053299)">
       <use xlink:href="#DejaVuSans-32"/>
       <use xlink:href="#DejaVuSans-30" x="63.623047"/>
       <use xlink:href="#DejaVuSans-30" x="127.246094"/>
      </g>
     </g>
    </g>
    <g id="text_48">
     <!-- number of components in model -->
     <g style="fill: #262626" transform="translate(950.576252 324.544685)scale(0.0768 -0.0768)">
      <use xlink:href="#DejaVuSans-6e"/>
      <use xlink:href="#DejaVuSans-75" x="63.378906"/>
      <use xlink:href="#DejaVuSans-6d" x="126.757812"/>
      <use xlink:href="#DejaVuSans-62" x="224.169922"/>
      <use xlink:href="#DejaVuSans-65" x="287.646484"/>
      <use xlink:href="#DejaVuSans-72" x="349.169922"/>
      <use xlink:href="#DejaVuSans-20" x="390.283203"/>
      <use xlink:href="#DejaVuSans-6f" x="422.070312"/>
      <use xlink:href="#DejaVuSans-66" x="483.251953"/>
      <use xlink:href="#DejaVuSans-20" x="518.457031"/>
      <use xlink:href="#DejaVuSans-63" x="550.244141"/>
      <use xlink:href="#DejaVuSans-6f" x="605.224609"/>
      <use xlink:href="#DejaVuSans-6d" x="666.40625"/>
      <use xlink:href="#DejaVuSans-70" x="763.818359"/>
      <use xlink:href="#DejaVuSans-6f" x="827.294922"/>
      <use xlink:href="#DejaVuSans-6e" x="888.476562"/>
      <use xlink:href="#DejaVuSans-65" x="951.855469"/>
      <use xlink:href="#DejaVuSans-6e" x="1013.378906"/>
      <use xlink:href="#DejaVuSans-74" x="1076.757812"/>
      <use xlink:href="#DejaVuSans-73" x="1115.966797"/>
      <use xlink:href="#DejaVuSans-20" x="1168.066406"/>
      <use xlink:href="#DejaVuSans-69" x="1199.853516"/>
      <use xlink:href="#DejaVuSans-6e" x="1227.636719"/>
      <use xlink:href="#DejaVuSans-20" x="1291.015625"/>
      <use xlink:href="#DejaVuSans-6d" x="1322.802734"/>
      <use xlink:href="#DejaVuSans-6f" x="1420.214844"/>
      <use xlink:href="#DejaVuSans-64" x="1481.396484"/>
      <use xlink:href="#DejaVuSans-65" x="1544.873047"/>
      <use xlink:href="#DejaVuSans-6c" x="1606.396484"/>
     </g>
    </g>
   </g>
   <g id="matplotlib.axis_8">
    <g id="text_49">
     <!-- cumulative variance explained (%) -->
     <g style="fill: #262626" transform="translate(886.426904 224.5482)rotate(-90)scale(0.0768 -0.0768)">
      <use xlink:href="#DejaVuSans-63"/>
      <use xlink:href="#DejaVuSans-75" x="54.980469"/>
      <use xlink:href="#DejaVuSans-6d" x="118.359375"/>
      <use xlink:href="#DejaVuSans-75" x="215.771484"/>
      <use xlink:href="#DejaVuSans-6c" x="279.150391"/>
      <use xlink:href="#DejaVuSans-61" x="306.933594"/>
      <use xlink:href="#DejaVuSans-74" x="368.212891"/>
      <use xlink:href="#DejaVuSans-69" x="407.421875"/>
      <use xlink:href="#DejaVuSans-76" x="435.205078"/>
      <use xlink:href="#DejaVuSans-65" x="494.384766"/>
      <use xlink:href="#DejaVuSans-20" x="555.908203"/>
      <use xlink:href="#DejaVuSans-76" x="587.695312"/>
      <use xlink:href="#DejaVuSans-61" x="646.875"/>
      <use xlink:href="#DejaVuSans-72" x="708.154297"/>
      <use xlink:href="#DejaVuSans-69" x="749.267578"/>
      <use xlink:href="#DejaVuSans-61" x="777.050781"/>
      <use xlink:href="#DejaVuSans-6e" x="838.330078"/>
      <use xlink:href="#DejaVuSans-63" x="901.708984"/>
      <use xlink:href="#DejaVuSans-65" x="956.689453"/>
      <use xlink:href="#DejaVuSans-20" x="1018.212891"/>
      <use xlink:href="#DejaVuSans-65" x="1050"/>
      <use xlink:href="#DejaVuSans-78" x="1109.773438"/>
      <use xlink:href="#DejaVuSans-70" x="1168.953125"/>
      <use xlink:href="#DejaVuSans-6c" x="1232.429688"/>
      <use xlink:href="#DejaVuSans-61" x="1260.212891"/>
      <use xlink:href="#DejaVuSans-69" x="1321.492188"/>
      <use xlink:href="#DejaVuSans-6e" x="1349.275391"/>
      <use xlink:href="#DejaVuSans-65" x="1412.654297"/>
      <use xlink:href="#DejaVuSans-64" x="1474.177734"/>
      <use xlink:href="#DejaVuSans-20" x="1537.654297"/>
      <use xlink:href="#DejaVuSans-28" x="1569.441406"/>
      <use xlink:href="#DejaVuSans-25" x="1608.455078"/>
      <use xlink:href="#DejaVuSans-29" x="1703.474609"/>
     </g>
    </g>
   </g>
   <g id="line2d_22">
    <path d="M 903.051772 283.6356 
L 905.012247 180.499937 
L 905.992484 148.956544 
L 906.972721 132.161171 
L 907.952958 119.234857 
L 908.933195 110.076264 
L 910.89367 96.500682 
L 911.873907 90.859499 
L 912.854144 86.262064 
L 914.814618 79.858706 
L 916.775092 75.07915 
L 917.75533 72.886903 
L 918.735567 71.12876 
L 920.696041 68.240657 
L 922.656515 65.808828 
L 924.61699 63.617208 
L 927.557701 60.835098 
L 929.518175 59.184127 
L 931.47865 57.71535 
L 935.399598 55.275339 
L 939.320547 53.146472 
L 943.241496 51.311362 
L 948.142681 49.396223 
L 953.043867 47.809966 
L 959.905527 45.902702 
L 966.767187 44.283853 
L 973.628847 42.886008 
L 983.431219 41.168698 
L 993.233591 39.693576 
L 1003.035962 38.432498 
L 1014.798808 37.147465 
L 1027.541891 35.968423 
L 1042.245448 34.834089 
L 1057.929243 33.847965 
L 1075.573511 32.953636 
L 1096.158492 32.153019 
L 1114.782998 31.6356 
L 1123.605132 31.6356 
L 1123.605132 31.6356 
" clip-path="url(#p4e7684e89d)" style="fill: none; stroke: #800080; stroke-width: 2.5; stroke-linecap: round"/>
   </g>
   <g id="line2d_23">
    <path d="M 892.024104 157.6356 
L 1134.6328 157.6356 
" clip-path="url(#p4e7684e89d)" style="fill: none; stroke: #d3d3d3; stroke-width: 0.25; stroke-linecap: round"/>
   </g>
   <g id="line2d_24">
    <path d="M 905.992484 296.2356 
L 905.992484 19.0356 
" clip-path="url(#p4e7684e89d)" style="fill: none; stroke-dasharray: 2,3.3; stroke-dashoffset: 0; stroke: #1f77b4; stroke-width: 2"/>
   </g>
   <g id="line2d_25">
    <path d="M 892.024104 107.2356 
L 1134.6328 107.2356 
" clip-path="url(#p4e7684e89d)" style="fill: none; stroke: #d3d3d3; stroke-width: 0.25; stroke-linecap: round"/>
   </g>
   <g id="line2d_26">
    <path d="M 909.913432 296.2356 
L 909.913432 19.0356 
" clip-path="url(#p4e7684e89d)" style="fill: none; stroke-dasharray: 2,3.3; stroke-dashoffset: 0; stroke: #ff7f0e; stroke-width: 2"/>
   </g>
   <g id="line2d_27">
    <path d="M 892.024104 56.8356 
L 1134.6328 56.8356 
" clip-path="url(#p4e7684e89d)" style="fill: none; stroke: #d3d3d3; stroke-width: 0.25; stroke-linecap: round"/>
   </g>
   <g id="line2d_28">
    <path d="M 933.439124 296.2356 
L 933.439124 19.0356 
" clip-path="url(#p4e7684e89d)" style="fill: none; stroke-dasharray: 2,3.3; stroke-dashoffset: 0; stroke: #2ca02c; stroke-width: 2"/>
   </g>
   <g id="patch_27">
    <path d="M 892.024104 296.2356 
L 1134.6328 296.2356 
" style="fill: none; stroke: #cccccc; stroke-linejoin: miter; stroke-linecap: square"/>
   </g>
   <g id="text_50">
    <g id="patch_28">
     <path d="M 903.051772 160.343033 
L 909.834096 160.343033 
Q 911.433072 160.343033 911.433072 158.744057 
L 911.433072 153.585694 
Q 911.433072 151.986718 909.834096 151.986718 
L 903.051772 151.986718 
Q 901.452796 151.986718 901.452796 153.585694 
L 901.452796 158.744057 
Q 901.452796 160.343033 903.051772 160.343033 
z
" style="fill: #ffffff; opacity: 0.8"/>
    </g>
    <!-- 50 -->
    <g style="fill: #262626" transform="translate(903.051772 157.6356)scale(0.053299 -0.053299)">
     <use xlink:href="#DejaVuSans-35"/>
     <use xlink:href="#DejaVuSans-30" x="63.623047"/>
    </g>
   </g>
   <g id="text_51">
    <g id="patch_29">
     <path d="M 911.967972 221.560379 
L 911.967972 172.304617 
Q 911.967972 170.970601 910.633956 170.970601 
L 901.351011 170.970601 
Q 900.016995 170.970601 900.016995 172.304617 
L 900.016995 221.560379 
Q 900.016995 222.894395 901.351011 222.894395 
L 910.633956 222.894395 
Q 911.967972 222.894395 911.967972 221.560379 
z
" style="fill: #ffffff; opacity: 0.8"/>
    </g>
    <!-- 3 components explain -->
    <g style="fill: #262626" transform="translate(904.729824 221.560379)rotate(-90)scale(0.044467 -0.044467)">
     <use xlink:href="#DejaVuSans-33"/>
     <use xlink:href="#DejaVuSans-20" x="63.623047"/>
     <use xlink:href="#DejaVuSans-63" x="95.410156"/>
     <use xlink:href="#DejaVuSans-6f" x="150.390625"/>
     <use xlink:href="#DejaVuSans-6d" x="211.572266"/>
     <use xlink:href="#DejaVuSans-70" x="308.984375"/>
     <use xlink:href="#DejaVuSans-6f" x="372.460938"/>
     <use xlink:href="#DejaVuSans-6e" x="433.642578"/>
     <use xlink:href="#DejaVuSans-65" x="497.021484"/>
     <use xlink:href="#DejaVuSans-6e" x="558.544922"/>
     <use xlink:href="#DejaVuSans-74" x="621.923828"/>
     <use xlink:href="#DejaVuSans-73" x="661.132812"/>
     <use xlink:href="#DejaVuSans-20" x="713.232422"/>
     <use xlink:href="#DejaVuSans-65" x="745.019531"/>
     <use xlink:href="#DejaVuSans-78" x="804.792969"/>
     <use xlink:href="#DejaVuSans-70" x="863.972656"/>
     <use xlink:href="#DejaVuSans-6c" x="927.449219"/>
     <use xlink:href="#DejaVuSans-61" x="955.232422"/>
     <use xlink:href="#DejaVuSans-69" x="1016.511719"/>
     <use xlink:href="#DejaVuSans-6e" x="1044.294922"/>
    </g>
    <!-- 50% of variance -->
    <g style="fill: #262626" transform="translate(909.709177 215.002856)rotate(-90)scale(0.044467 -0.044467)">
     <use xlink:href="#DejaVuSans-35"/>
     <use xlink:href="#DejaVuSans-30" x="63.623047"/>
     <use xlink:href="#DejaVuSans-25" x="127.246094"/>
     <use xlink:href="#DejaVuSans-20" x="222.265625"/>
     <use xlink:href="#DejaVuSans-6f" x="254.052734"/>
     <use xlink:href="#DejaVuSans-66" x="315.234375"/>
     <use xlink:href="#DejaVuSans-20" x="350.439453"/>
     <use xlink:href="#DejaVuSans-76" x="382.226562"/>
     <use xlink:href="#DejaVuSans-61" x="441.40625"/>
     <use xlink:href="#DejaVuSans-72" x="502.685547"/>
     <use xlink:href="#DejaVuSans-69" x="543.798828"/>
     <use xlink:href="#DejaVuSans-61" x="571.582031"/>
     <use xlink:href="#DejaVuSans-6e" x="632.861328"/>
     <use xlink:href="#DejaVuSans-63" x="696.240234"/>
     <use xlink:href="#DejaVuSans-65" x="751.220703"/>
    </g>
   </g>
   <g id="text_52">
    <g id="patch_30">
     <path d="M 903.051772 109.943033 
L 909.834096 109.943033 
Q 911.433072 109.943033 911.433072 108.344057 
L 911.433072 103.185694 
Q 911.433072 101.586718 909.834096 101.586718 
L 903.051772 101.586718 
Q 901.452796 101.586718 901.452796 103.185694 
L 901.452796 108.344057 
Q 901.452796 109.943033 903.051772 109.943033 
z
" style="fill: #ffffff; opacity: 0.8"/>
    </g>
    <!-- 70 -->
    <g style="fill: #262626" transform="translate(903.051772 107.2356)scale(0.053299 -0.053299)">
     <use xlink:href="#DejaVuSans-37"/>
     <use xlink:href="#DejaVuSans-30" x="63.623047"/>
    </g>
   </g>
   <g id="text_53">
    <g id="patch_31">
     <path d="M 915.888921 221.560379 
L 915.888921 172.304617 
Q 915.888921 170.970601 914.554905 170.970601 
L 905.27196 170.970601 
Q 903.937944 170.970601 903.937944 172.304617 
L 903.937944 221.560379 
Q 903.937944 222.894395 905.27196 222.894395 
L 914.554905 222.894395 
Q 915.888921 222.894395 915.888921 221.560379 
z
" style="fill: #ffffff; opacity: 0.8"/>
    </g>
    <!-- 7 components explain -->
    <g style="fill: #262626" transform="translate(908.650772 221.560379)rotate(-90)scale(0.044467 -0.044467)">
     <use xlink:href="#DejaVuSans-37"/>
     <use xlink:href="#DejaVuSans-20" x="63.623047"/>
     <use xlink:href="#DejaVuSans-63" x="95.410156"/>
     <use xlink:href="#DejaVuSans-6f" x="150.390625"/>
     <use xlink:href="#DejaVuSans-6d" x="211.572266"/>
     <use xlink:href="#DejaVuSans-70" x="308.984375"/>
     <use xlink:href="#DejaVuSans-6f" x="372.460938"/>
     <use xlink:href="#DejaVuSans-6e" x="433.642578"/>
     <use xlink:href="#DejaVuSans-65" x="497.021484"/>
     <use xlink:href="#DejaVuSans-6e" x="558.544922"/>
     <use xlink:href="#DejaVuSans-74" x="621.923828"/>
     <use xlink:href="#DejaVuSans-73" x="661.132812"/>
     <use xlink:href="#DejaVuSans-20" x="713.232422"/>
     <use xlink:href="#DejaVuSans-65" x="745.019531"/>
     <use xlink:href="#DejaVuSans-78" x="804.792969"/>
     <use xlink:href="#DejaVuSans-70" x="863.972656"/>
     <use xlink:href="#DejaVuSans-6c" x="927.449219"/>
     <use xlink:href="#DejaVuSans-61" x="955.232422"/>
     <use xlink:href="#DejaVuSans-69" x="1016.511719"/>
     <use xlink:href="#DejaVuSans-6e" x="1044.294922"/>
    </g>
    <!-- 70% of variance -->
    <g style="fill: #262626" transform="translate(913.630126 215.002856)rotate(-90)scale(0.044467 -0.044467)">
     <use xlink:href="#DejaVuSans-37"/>
     <use xlink:href="#DejaVuSans-30" x="63.623047"/>
     <use xlink:href="#DejaVuSans-25" x="127.246094"/>
     <use xlink:href="#DejaVuSans-20" x="222.265625"/>
     <use xlink:href="#DejaVuSans-6f" x="254.052734"/>
     <use xlink:href="#DejaVuSans-66" x="315.234375"/>
     <use xlink:href="#DejaVuSans-20" x="350.439453"/>
     <use xlink:href="#DejaVuSans-76" x="382.226562"/>
     <use xlink:href="#DejaVuSans-61" x="441.40625"/>
     <use xlink:href="#DejaVuSans-72" x="502.685547"/>
     <use xlink:href="#DejaVuSans-69" x="543.798828"/>
     <use xlink:href="#DejaVuSans-61" x="571.582031"/>
     <use xlink:href="#DejaVuSans-6e" x="632.861328"/>
     <use xlink:href="#DejaVuSans-63" x="696.240234"/>
     <use xlink:href="#DejaVuSans-65" x="751.220703"/>
    </g>
   </g>
   <g id="text_54">
    <g id="patch_32">
     <path d="M 903.051772 59.543033 
L 909.834096 59.543033 
Q 911.433072 59.543033 911.433072 57.944057 
L 911.433072 52.785694 
Q 911.433072 51.186718 909.834096 51.186718 
L 903.051772 51.186718 
Q 901.452796 51.186718 901.452796 52.785694 
L 901.452796 57.944057 
Q 901.452796 59.543033 903.051772 59.543033 
z
" style="fill: #ffffff; opacity: 0.8"/>
    </g>
    <!-- 90 -->
    <g style="fill: #262626" transform="translate(903.051772 56.8356)scale(0.053299 -0.053299)">
     <use xlink:href="#DejaVuSans-39"/>
     <use xlink:href="#DejaVuSans-30" x="63.623047"/>
    </g>
   </g>
   <g id="text_55">
    <g id="patch_33">
     <path d="M 939.414613 221.560379 
L 939.414613 169.475392 
Q 939.414613 168.141376 938.080597 168.141376 
L 928.797652 168.141376 
Q 927.463636 168.141376 927.463636 169.475392 
L 927.463636 221.560379 
Q 927.463636 222.894395 928.797652 222.894395 
L 938.080597 222.894395 
Q 939.414613 222.894395 939.414613 221.560379 
z
" style="fill: #ffffff; opacity: 0.8"/>
    </g>
    <!-- 31 components explain -->
    <g style="fill: #262626" transform="translate(932.176464 221.560379)rotate(-90)scale(0.044467 -0.044467)">
     <use xlink:href="#DejaVuSans-33"/>
     <use xlink:href="#DejaVuSans-31" x="63.623047"/>
     <use xlink:href="#DejaVuSans-20" x="127.246094"/>
     <use xlink:href="#DejaVuSans-63" x="159.033203"/>
     <use xlink:href="#DejaVuSans-6f" x="214.013672"/>
     <use xlink:href="#DejaVuSans-6d" x="275.195312"/>
     <use xlink:href="#DejaVuSans-70" x="372.607422"/>
     <use xlink:href="#DejaVuSans-6f" x="436.083984"/>
     <use xlink:href="#DejaVuSans-6e" x="497.265625"/>
     <use xlink:href="#DejaVuSans-65" x="560.644531"/>
     <use xlink:href="#DejaVuSans-6e" x="622.167969"/>
     <use xlink:href="#DejaVuSans-74" x="685.546875"/>
     <use xlink:href="#DejaVuSans-73" x="724.755859"/>
     <use xlink:href="#DejaVuSans-20" x="776.855469"/>
     <use xlink:href="#DejaVuSans-65" x="808.642578"/>
     <use xlink:href="#DejaVuSans-78" x="868.416016"/>
     <use xlink:href="#DejaVuSans-70" x="927.595703"/>
     <use xlink:href="#DejaVuSans-6c" x="991.072266"/>
     <use xlink:href="#DejaVuSans-61" x="1018.855469"/>
     <use xlink:href="#DejaVuSans-69" x="1080.134766"/>
     <use xlink:href="#DejaVuSans-6e" x="1107.917969"/>
    </g>
    <!-- 90% of variance -->
    <g style="fill: #262626" transform="translate(937.155818 213.588244)rotate(-90)scale(0.044467 -0.044467)">
     <use xlink:href="#DejaVuSans-39"/>
     <use xlink:href="#DejaVuSans-30" x="63.623047"/>
     <use xlink:href="#DejaVuSans-25" x="127.246094"/>
     <use xlink:href="#DejaVuSans-20" x="222.265625"/>
     <use xlink:href="#DejaVuSans-6f" x="254.052734"/>
     <use xlink:href="#DejaVuSans-66" x="315.234375"/>
     <use xlink:href="#DejaVuSans-20" x="350.439453"/>
     <use xlink:href="#DejaVuSans-76" x="382.226562"/>
     <use xlink:href="#DejaVuSans-61" x="441.40625"/>
     <use xlink:href="#DejaVuSans-72" x="502.685547"/>
     <use xlink:href="#DejaVuSans-69" x="543.798828"/>
     <use xlink:href="#DejaVuSans-61" x="571.582031"/>
     <use xlink:href="#DejaVuSans-6e" x="632.861328"/>
     <use xlink:href="#DejaVuSans-63" x="696.240234"/>
     <use xlink:href="#DejaVuSans-65" x="751.220703"/>
    </g>
   </g>
   <g id="text_56">
    <!-- tCompCor -->
    <g style="fill: #262626" transform="translate(994.004252 13.0356)scale(0.0768 -0.0768)">
     <use xlink:href="#DejaVuSans-74"/>
     <use xlink:href="#DejaVuSans-43" x="39.208984"/>
     <use xlink:href="#DejaVuSans-6f" x="109.033203"/>
     <use xlink:href="#DejaVuSans-6d" x="170.214844"/>
     <use xlink:href="#DejaVuSans-70" x="267.626953"/>
     <use xlink:href="#DejaVuSans-43" x="331.103516"/>
     <use xlink:href="#DejaVuSans-6f" x="400.927734"/>
     <use xlink:href="#DejaVuSans-72" x="462.109375"/>
    </g>
   </g>
  </g>
 </g>
 <defs>
  <clipPath id="pd2b6657c42">
   <rect x="18.6328" y="19.0356" width="242.608696" height="277.2"/>
  </clipPath>
  <clipPath id="p8a0c7c0db5">
   <rect x="309.763235" y="19.0356" width="242.608696" height="277.2"/>
  </clipPath>
  <clipPath id="p20ae1f6b0a">
   <rect x="600.89367" y="19.0356" width="242.608696" height="277.2"/>
  </clipPath>
  <clipPath id="p4e7684e89d">
   <rect x="892.024104" y="19.0356" width="242.608696" height="277.2"/>
  </clipPath>
 </defs>
</svg>
